<?xml version="1.0" encoding="UTF-8"?><svg id="Layer_1" xmlns="http://www.w3.org/2000/svg" xmlns:xlink="http://www.w3.org/1999/xlink" viewBox="0 0 991.427 252.3678"><defs><style>.cls-1{fill:url(#linear-gradient-4);}.cls-2{fill:url(#linear-gradient-3);}.cls-3{fill:url(#linear-gradient-2);}.cls-4{fill:url(#linear-gradient);}</style><linearGradient id="linear-gradient" x1="-60.0115" y1="96.7375" x2="1071.2931" y2="96.7375" gradientUnits="userSpaceOnUse"><stop offset="0" stop-color="#4000ff"/><stop offset="1" stop-color="#d500e9"/></linearGradient><linearGradient id="linear-gradient-2" x1="-60.0115" y1="126.1839" x2="1071.2931" y2="126.1839" xlink:href="#linear-gradient"/><linearGradient id="linear-gradient-3" x1="-60.0115" y1="130.9941" x2="1071.2931" y2="130.9941" xlink:href="#linear-gradient"/><linearGradient id="linear-gradient-4" x1="-60.0115" y1="94.5636" x2="1071.2931" y2="94.5636" xlink:href="#linear-gradient"/></defs><path class="cls-4" d="M872.9285,107.3966c.8096.6255,1.6191,1.2509,2.4286,1.8764,1.8717,1.0855,3.8906,1.6316,6.0566,1.6383l3.1901-.4286c2.0329-.5701,3.7979-1.5988,5.2952-3.0861,1.4492-1.4493,2.8986-2.8986,4.3479-4.3478,1.1702-1.0869,1.9972-2.3742,2.4812-3.8619.7512-1.4301,1.0957-2.9712,1.0334-4.6234.0623-1.6522-.2822-3.1933-1.0334-4.6234-.484-1.4877-1.311-2.775-2.4812-3.8619-.8096-.6255-1.6191-1.2509-2.4287-1.8764-1.8716-1.0854-3.8906-1.6316-6.0566-1.6383l-3.1901.4286c-2.0329.5701-3.7979,1.5988-5.2952,3.0861l-4.3478,4.3478c-1.1702,1.0869-1.9973,2.3742-2.4812,3.8619-.7513,1.4301-1.0958,2.9712-1.0335,4.6234-.0623,1.6522.2822,3.1933,1.0335,4.6234.4839,1.4877,1.311,2.775,2.4812,3.8619Z"/><path class="cls-3" d="M985.4747,162.5907c-2.785-1.4714-6.1588-2.209-9.2468-1.2097-2.7964.905-5.9059,2.7232-7.1715,5.5147-2.3717,5.231-5.3068,10.1741-8.7172,14.7891-3.949,4.9146-8.4246,9.3736-13.3368,13.3248-5.1832,3.8493-10.7659,7.1223-16.6635,9.7501-5.8295,2.3209-11.8911,3.9949-18.094,4.9465-2.2845.2531-4.582.3984-6.875.2654-.449-.0981-.894-.2112-1.3345-.3428-.1377-.0773-.2695-.1667-.4048-.2484-.0887-.0875-.1699-.1837-.2566-.2736-.1758-.287-.3433-.5791-.502-.8762-.2761-.8475-.4987-1.7097-.6764-2.5836-.1622-2.0757-.1268-4.156.0708-6.2289.7682-4.4016,2.1071-8.7292,3.741-12.8893,1.7013-3.8665,3.7014-7.584,5.9943-11.1263,14.5183-14.0289,29.0129-28.1726,41.4747-44.1051,5.1476-6.5812,9.9652-13.451,14.239-20.6171,3.8394.1027,7.6779.2401,11.5135.4371,2.9763.1528,6.4177-1.4471,8.4854-3.5148,2.0813-2.0813,3.6486-5.496,3.5146-8.4852-.1389-3.1035-1.1584-6.3223-3.5146-8.4853-2.415-2.217-5.1833-3.3452-8.4854-3.5147-.0562-.0029-.1122-.0046-.1683-.0075,2.1344-5.8499,3.8357-11.8737,4.9767-18.0912,1.129-6.1531-1.6851-13.2362-8.3813-14.7615-5.8809-1.3394-13.5499,1.7792-14.7615,8.3813-.7999,4.3595-1.8361,8.6623-3.1664,12.8911-.5988,1.9031-1.2512,3.7892-1.953,5.6568-.3628.9652-.7424,1.9251-1.1345,2.8793-.0757.1348-.7222,1.5831-1.1104,2.4483-8.3416.0358-16.6821.2965-25.0105.7897-4.8589.2878-9.7126.6557-14.5601,1.096-3.2444.2947-6.1113,1.1407-8.4854,3.5147-2.0813,2.0813-3.6486,5.4961-3.5146,8.4853.1389,3.1035,1.1584,6.3223,3.5146,8.4853,2.2231,2.0407,5.3555,3.799,8.4854,3.5147,8.356-.759,16.7317-1.2907,25.1157-1.5941-.8754,1.2142-1.7588,2.4228-2.6626,3.616-.3179.4014-1.4515,1.8651-1.4255,1.8325-.5107.6405-1.0248,1.2785-1.5421,1.9137-3.1193,3.8301-6.3589,7.5613-9.6796,11.2179-6.1064,6.7242-12.4899,13.1911-18.9673,19.5566-2.5287,2.485-5.0714,4.9559-7.6111,7.4299-1.4883.9318-2.7092,2.1309-3.6738,3.5862-11.6328,11.2927-23.3498,22.5009-35.0083,33.765-2.33,2.2512-4.66,4.5023-6.9899,6.7535.7662-3.4135,1.5539-6.8222,2.3843-10.2206,5.7408-23.4921,13.0382-46.5803,21.7563-69.1357,2.1508-5.5645-1.9302-12.0391-6.948-14.1566-5.4234-2.2887-11.9698-.2985-14.985,4.9099-12.6195,21.7984-26.2412,40.5573-42.8098,58.7831-8.4387,9.2827-17.3693,18.1198-26.7497,26.45-2.2892,2.0329-4.5908,4.0582-6.9602,5.9977-1.3217,1.0818-.329.3403-1.749,1.3027-1.4462.9801-2.9261,1.8622-4.4348,2.738-.1086.063-1.0427.4889-1.1472.5616-.4122.1423-.8293.2733-1.2457.3928-.3625.104-.7308.2032-1.101.2932-.198.0017-.9996.0887-1.2073.079-.3588-.0167-.5854-.0175-.7357-.0107-.0967-.0439-.2404-.1001-.4564-.1739-.141-.0482-.2609-.0887-.3669-.1244-.3314-.1853-.6631-.3699-.9973-.5522-.0261-.0142-.0446-.0244-.0692-.0378-.2485-.2303-.4997-.457-.7396-.6981-.1232-.1238-.4849-.5068-.7346-.7638-.0308-.0417-.0593-.0809-.0745-.1055-.5628-.9186-1.0118-2.0754-1.6644-2.9205-.2064-.5872-.4127-1.1735-.5884-1.7729-.3302-1.1263-.5119-2.2728-.7963-3.4076.509,2.0304.0442.3353-.0051-.7755-.0511-1.1512-.0207-2.295.0488-3.444.0193-.319.0225-.4539.0181-.4974.1378-.9202.3348-1.843.5349-2.7458,1.2728-5.7413,3.316-11.2269,5.408-16.6992,1.6016-1.1738,3.2046-2.3456,4.8059-3.5198,23.6807-17.3637,47.8677-35.203,65.79-58.7833,15.1986-19.9967,25.666-53.7725,2.7473-72.6659-20.2972-16.7324-51.6375-10.1927-67.5424,9.4614-18.7321,23.1476-18.4958,52.8384-20.3246,81.0543-.5056,7.7991-1.0292,13.3734-2.6766,20.5996-.6957,3.0515-1.5983,6.0245-2.6022,8.963-8.9204,6.5822-17.8713,13.1239-26.8588,19.6082,3.9337-6.5951,6.7144-13.8162,7.7714-21.6823,2.9551-21.9926-7.8727-45.6868-30.5442-51.8475-7.7883-2.1164-15.4721-1.85-22.8843.0005,16.0303-28.921,30.017-58.9512,41.9487-89.8394,1.821-4.7143-1.175-11.2589-5.5147-13.5517-4.711-2.489-10.685-2.0264-14.5419,1.8763-19.4122,19.6426-33.2112,43.7233-44.5892,68.6868-11.7928,25.8737-19.8869,49.3593-32.509,74.2569-4.6452,9.1628-9.8363,18.0604-15.6105,26.5606-.0054-.0099-.0107-.0198-.0161-.0297,2.7596-5.0931,5.2361-10.357,7.4211-15.7854,3.5588-8.8415,7.3395-19.0005,4.7704-28.5764-2.4509-9.1356-10.3727-15.5617-19.1984-18.113-18.8042-5.436-33.1129,7.228-48.4902,15.5739-.1557.0845-.2823.1533-.3965.2153-.2813.1072-.5632.2131-.8475.3126,3.709-9.381,6.8754-18.9531,10.4163-28.4093,3.9593-10.5735,9.8856-22.4644,17.2341-30.9333,8.8257-10.1713,19.3962-18.6305,29.8732-27.0156,4.6525-3.7236,4.2425-11.4793.9382-15.7562-3.8856-5.0293-9.9407-5.6021-15.4801-3.0907-28.5229,12.9312-52.712,36.0446-67.2706,63.7519-7.2479,13.7939-16.0884,32.6982-10.1476,48.4144.6442,1.7043,1.4065,3.2672,2.2595,4.712-9.0408,15.5237-19.5826,28.4181-31.4893,41.6301-.1014-2.2849-.1743-4.5706-.2314-6.8536-.2643-10.56-12.8483-15.6119-20.4853-8.4853-11.498,10.7297-14.1553,27.9625-9.1964,42.5045.1226.3594.2667.7059.3961,1.0613-.0961.027-.1921.0532-.2882.0811-.0718.0208-.131.0386-.1877.0557-.2723-.1536-1.3928-.4375-1.6788-.4266-.1815-.1151-.3625-.2275-.4464-.2811-.1008-.0938-.2061-.1937-.3076-.2949-.272-.2715-1.4609-1.5925-1.4949-1.5455-.5901-.814-1.1304-1.6761-1.6407-2.5356-1.152-1.9405-2.7739-5.2275-3.3013-6.4909-1.8925-4.5338-3.7335-11.3893-4.7312-17.0732-.1117-.636-.2113-1.2739-.3148-1.9114-.0369-.2271-.0623-.3776-.0816-.4874-.0069-.0565-.0124-.1025-.0208-.17-.027-.218-.0477-.4368-.0732-.655,3.3151-16.8121,3.7428-34.1151,1.515-51.2618.0005-.0046.0009-.0091.0014-.0137-.001.0001-.0021.0003-.0032.0004-.1383-1.0638-.2668-2.1281-.4255-3.1905-.8781-5.879-7.8871-9.305-13.1664-8.5956-6.2868.8447-9.7706,5.7546-10.405,11.7856-1.7372,16.5165-3.3141,33.5593-1.7295,50.2173-.8542,3.6445-1.8444,7.2572-2.9843,10.8227-1.5405,4.819-3.4266,9.7114-5.0366,13.1957-2.1287,4.6068-4.4534,9.1746-7.2256,13.4313-.6476.9944-1.3257,1.9658-2.0181,2.9293-.0541.0753-.2392.3055-.4133.5203-1.4836,1.7891-3.0519,3.5067-4.7505,5.0948-.6628.6197-1.3489,1.2311-2.0562,1.8087-.1764.0722-1.7888,1.1774-1.8711,1.2277-.6344.388-1.3023.7145-1.9358,1.1007-.2878.1366-.5038.2406-.6658.3203-.499.1774-.9977.3559-1.5074.5011-.3447.0975-2.1667.3387-2.0854.3892-.5587.0156-1.1191.0137-1.6801-.0071.8212-.0208-1.3054-.4249-2.5352-.7006-.3016-.1136-.6263-.2465-.8324-.3636-.4077-.2317-1.3409-.9561-1.4077-.9736-.2194-.2022-.4392-.4035-.6496-.6183-.2628-.2688-.509-.5525-.7576-.8342-.7004-1.1669-1.3633-2.3153-2.0121-3.515-.0236-.0437-.0385-.0685-.0601-.1078-.021-.0728-.0367-.1314-.0632-.2191-.2581-.8516-.5731-1.6835-.8195-2.54-.5112-1.7759-.8415-3.5743-1.2087-5.3819-.0096-.0474-.0191-.1029-.0284-.1612.0157.1586.0328.3328.0527.5419-.0178-.1865-.0367-.3726-.0553-.5589-.0893-.5703-.1531-1.4892-.0389-.3922-.0963-.959-.1932-1.9173-.2545-2.8808-.2278-3.5773-.1961-7.1696.0231-10.7465.1183-1.9315.3235-3.8506.5191-5.7751.0096-.0951.0153-.1575.0231-.2372.017-.0961.0326-.1819.0535-.3043.213-1.244.4058-2.4907.629-3.7331,1.3724-7.6389,3.1444-15.2281,5.6248-22.5881.7065-2.0964,1.4759-4.1727,2.3132-6.2206.0451-.0953.0948-.2005.1519-.321.5639-1.193,1.1142-2.3895,1.717-3.5638.6356-1.238,1.3185-2.4509,2.0259-3.6495,9.6166-4.1755,18.4099-10.1679,25.6185-17.8334,3.5257-3.7491,4.803-10.0024,1.8763-14.5419-3.1491-4.8845-8.0186-6.3055-13.5517-5.5148-12.3261,1.7615-21.8589,8.7892-29.1091,17.9916-2.5545.7732-5.1557,1.4005-7.7836,1.8672-.1555.0276-2.4808.3081-2.1895.299-1.257.1166-2.5142.2178-3.7769.2673-2.3535.0922-4.7098.0457-7.0592-.1183-.3893-6.2924-2.857-12.2011-5.7545-18.0157-.7308-1.4666-1.4898-2.9191-2.203-4.3945-.2527-.5229-.4775-1.0669-.7451-1.5826-.0976-.2587-.1996-.5157-.2884-.7776-.1758-.5742-.3423-1.1621-.5398-1.7282-.0617-.2139-.1056-.4323-.1583-.6485.0129-.2894.0131-.5997-.0063-.8876.0432-.1763.0351-.2119-.0145-.1332-.0053-.0571-.0112-.1132-.0182-.1675,2.7051-8.0714-1.5944-16.1521-10.8562-16.7326-12.7708-.8005-23.0472,8.9458-26.9122,20.4205-4.0239,11.9465.3267,24.8763,9.1663,33.4669,1.3907,1.3516,2.8624,2.597,4.3922,3.7584-1.0799,1.0599-2.1591,2.1205-3.2387,3.1808-10.5829,10.3939-21.0458,20.9294-31.7802,31.1669-2.2621,2.1574-4.561,4.2769-6.923,6.3248-1.1078.9604-2.2335,1.8978-3.3646,2.8303-.3032.25-.5266.434-.6969.5742-.7662.5872-1.5478,1.1566-2.3342,1.7161-2.4966,1.7761-5.0797,3.4365-7.7712,4.9029-1.2299.67-2.4821,1.2963-3.7545,1.8812-.0484.0223-.0795.037-.1209.0563-.0792.0276-.1758.0621-.293.1047-.9205.3347-1.8401.6681-2.7768.9556-1.3019.3997-2.6215.7375-3.9556,1.0104-.1713.035-.9833.1577-1.4286.2324-.2726.0219-.5434.0446-.577.0458-1.5832.0581-3.1411.0099-4.7229-.0035-.2078-.0018-.6284-.0591-.9287-.1038-.3062-.0565-.6132-.108-.9177-.1746-1.1337-.2479-2.2557-.5566-3.356-.9257-.2639-.0885-.5242-.1877-.7845-.2868-.9089-.5624-1.9348-.9827-2.8516-1.5427-.4141-.2528-1.7679-1.2585-2.1134-1.4726-.5368-.4878-1.2514-1.1311-1.3945-1.2693-.7083-.684-1.3888-1.3964-2.0407-2.1345-.2306-.2611-.4517-.5324-.6746-.8018-.6395-1.0137-1.3673-1.975-1.9851-3.0068-.5244-.8759-1.0173-1.7701-1.483-2.6784-.2686-.5237-.5194-1.0555-.7772-1.5844-.0715-.1465-.2192-.5024-.3396-.7943-.2125-.5924-.5214-1.4461-.6165-1.726-.4378-1.2885-.8247-2.5933-1.1687-3.9099-.2698-1.0328-.5115-2.0729-.7241-3.119-.1351-.6647-.4809-3.1589-.4291-2.4715-.1942-1.9374-.3326-3.8746-.3535-5.8256-.025-2.3228.1437-4.6114.3142-6.9241-.0227.1211-.0467.2485-.0745.3939.0316-.1651.0561-.3318.0836-.4979.0298-.309.1152-.7595.1562-.931.0219-.1321.0422-.2646.0665-.3962.223-1.209.4846-2.4116.7864-3.6035.5334-2.1063,1.2806-4.1074,1.98-6.1527.2334-.4813.4504-.9744.6877-1.4514.7722-1.5523,1.6069-3.0729,2.5039-4.5566.7005-1.1588,1.4694-2.2677,2.2128-3.3983.0789-.1198.3757-.5143.5583-.7599.3725-.4553.7483-.91,1.1357-1.349.8862-1.0041,1.8148-1.9701,2.7836-2.8946.4138-.3948.8409-.7731,1.2601-1.162.285-.2644.4744-.4482.6069-.5831.1432-.0925.3107-.2029.537-.3572,1.2516-.853,2.5293-1.6603,3.8701-2.3679.4683-.2471.9487-.4872,1.4324-.7139.1238-.0247.8588-.2845,1.3159-.4131.4915-.1383.9787-.2878,1.475-.4098.0129-.0031.9828-.1839,1.5411-.3009.3397-.0321.705-.0673.8431-.074.8552-.0419,1.7115-.0517,2.5674-.0205.5084.0186,1.0131.0607,1.5187.1022.1036.025.2211.0542.3648.0921.6565.1732,1.3195.3043,1.9721.493.1557.045.936.3134,1.4424.4792.3194.146.6846.3134.8102.3862.6396.3705,1.2783.798,1.9249,1.1598.4945.5005,1.0317.9903,1.5441,1.4641.0421.0389.0745.0693.1125.1046.295.4949.5621,1.0425.8753,1.5229.1161.5161.2681,1.0859.4219,1.6036-.0262.6188.0256,1.3009.0544,1.8992.001.0209,0,.0429.0003.0643.0378-.1567.0803-.3278.1335-.5328-.0493.1896-.0871.3852-.1332.5777-.0069.567-.249,1.2315-.1586.688-.0717.3199-.1516.6384-.2201.9543-.0281.1295-.078.254-.1216.38-.0354.1611-.0956.3694-.183.5809-.037.1127-.0825.2238-.1054.3391.0142-.0717.0267-.1295.04-.1938-.0341.0715-.0702.1422-.1106.2094-.282.4692-.6653.9634-.8831,1.4639-.0234.0211-.0398.0346-.0648.0574-.258.2361-.5317.4902-.7983.7454-.0513.0335-.0842.0554-.1465.0957-.0632.041-.1124.0732-.1664.1083-.6315.1834-1.2621.3522-1.9188.479-6.1758,1.1926-10.2689,8.9284-8.3813,14.7614,2.1303,6.5829,8.1446,9.6591,14.7614,8.3813,14.5852-2.8165,23.7781-18.6302,22.2909-32.7924-1.8071-17.2086-16.3401-27.9608-32.8298-29.5295-31.3906-2.9863-52.5258,29.9678-54.5359,57.669-1.7933,24.7127,10.0592,51.6923,34.3924,60.5927,14.7074,5.3796,31.2017,1.3102,44.2438-6.4151,14.0264-8.3083,25.4268-20.4149,36.9608-31.7428,7.1077-6.9807,14.2153-13.9614,21.323-20.9421,2.4003-2.3574,4.9963-4.7319,7.4395-7.2472,5.5557,1.084,11.2869,1.5005,16.9649,1.3064-5.495,15.3469-8.6755,32.5839-8.0667,48.6097.3639,9.5784,2.0807,19.6263,7.0404,27.9842,5.6998,9.6049,15.1071,15.3493,26.129,16.5416,12.1432,1.3136,23.8629-5.4789,32.0542-13.902,6.3611-6.5411,11.1132-14.2393,15.0875-22.3533,3.4957,6.191,8.0671,11.6664,14.1861,14.7959,9.151,4.6801,18.3224,3.4266,26.5078-.7949,2.8405,2.6401,5.9885,4.9485,9.4207,6.8634,3.6005,4.0607,7.9351,7.5783,13.1867,10.3331,25.9868,13.6313,59.8406,5.4351,83.6433-9.1094,8.2658-5.0508,15.8966-11.0179,22.96-17.6227,6.8556,6.9656,15.1339,12.1978,24.3759,15.9124,26.1906,10.5265,54.7911,1.2971,77.9626-12.3345,12.1317-7.137,23.399-15.629,34.7394-23.9343,1.2169-.8912,2.4337-1.7827,3.6508-2.6738-.0726,4.9809.6548,9.9645,2.5368,14.8596,5.5849,14.5263,18.3453,23.8808,34.253,21.3818,14.6133-2.2957,26.6562-15.2394,36.9458-24.9457,7.5353-7.1081,14.7582-14.5609,21.6562-22.308-1.194,4.916-2.3303,9.8461-3.3896,14.793-1.3339,6.2295-3.111,12.8055-1.6006,19.1722,1.573,6.6307,6.6116,12.1075,13.3227,13.7081,7.6145,1.816,14.7222-1.6957,20.4978-6.3525,6.712-5.4117,12.8599-11.7384,19.0011-17.936.3116,2.6996.7809,5.405,1.7933,7.9274,1.5599,3.8866,3.2919,7.1982,6.2733,10.2416,3.0624,3.1263,6.9932,5.3321,11.1609,6.5964,7.2401,2.1963,15.1538,1.087,22.4456-.1572,5.2168-.8902,10.3419-2.3048,15.2876-4.1864,11.7323-4.4635,22.2952-10.7619,31.7239-19.0715,9.4641-8.3408,17.4674-18.8605,22.6819-30.3618.877-1.3774,1.3516-2.8646,1.4241-4.4616.3572-1.595.2858-3.1901-.2144-4.7851-.7665-2.7835-2.9187-5.8-5.5146-7.1716ZM776.6814,97.2221c-.0083.0643-.012.092-.0118.0898-.0002.0023.0035-.0255.0118-.0898ZM775.4686,112.2434c.1761-3.2276.375-6.4556.6591-9.6757.1218-1.381.2594-2.7604.4154-4.138.0555-.4906.1142-.9808.1743-1.4708.0268-.1928.0612-.4329.0987-.6711.8969-5.7004,2.0957-11.3475,3.9076-16.8329.4318-1.3071.9012-2.5991,1.3937-3.8846.1432-.3738.2222-.5908.2625-.71.0499-.0828.1569-.2853.3746-.7298,1.2813-2.6168,2.6464-5.1707,4.2598-7.6012.2466-.3714,1.8064-2.4244,1.5659-2.1825.7631-.9082,1.5487-1.7961,2.3737-2.6494.8657-.8954,1.7767-1.7253,2.6954-2.5646.032-.0293.1174-.0989.2151-.1779.3124-.2188.7766-.5497.8817-.6168.9747-.6217,1.9427-1.2416,2.957-1.7979.3436-.1884,1.4803-.7493,2.062-1.0452.5086-.1772,1.9405-.73,2.3661-.8655,1.2589-.4009,2.5389-.7429,3.8302-1.022.7358-.1591,1.8399-.3051,1.6971-.3062.8016-.0706,1.6029-.1321,2.4098-.1542,1.1281-.031,2.2578-.0158,3.3841.0571.3856.025.7697.0684,1.1542.1061.1035.0274.2236.0591.3798.1006,1.0632.2824,2.1247.5397,3.1833.8447.3215.0926.6348.2094.9488.3241.0262.0143.0458.0249.0736.0401.8169.4458,1.6167.921,2.4308,1.3698.1428.0787.2578.1415.3607.1975.3074.2609.6193.5168.9128.7916.3265.3056,1.3409,1.4095,1.6912,1.759.1533.2086.3104.4216.3381.4664.3871.6241.7825,1.2371,1.1346,1.8816.2266.4145.4335.8383.6386,1.2633.0186.0774.0428.1711.0779.2955.3633,1.2858.6747,2.5543.9745,3.8532.0216.4423.0643.8859.0815,1.3278.0499,1.275-.0265,2.5295-.0527,3.8013-.0037.181-.0426.6252-.0653.9155-.0498.2835-.0919.5684-.1445.8502-.2786,1.4918-.6312,2.9673-1.0449,4.4272-.3687,1.301-.7844,2.5884-1.2444,3.8602-.1384.3826-.835,2.0517-.7945,2.0082-1.1583,2.5317-2.4578,4.9969-3.886,7.3867-1.4131,2.3645-2.9523,4.6424-4.5805,6.8633-.0327.0445-.0477.0652-.0753.1029-.4528.5685-.9149,1.1312-1.3785,1.6896-1.145,1.3792-2.3137,2.7391-3.5016,4.0815-4.1516,4.692-8.5496,9.1642-13.1168,13.4516-7.7494,7.2749-16.1078,14.1263-24.0562,20.2351.7938-8.3928,1.1174-16.8358,1.5768-25.2552ZM253.3541,132.422c.7987.7484.3756.4045,0,0h0ZM244.8672,128.0393c-.388-.0586-.4312-.0983,0,0h0ZM321.5774,135.1436c-.0547.106-.1127.2109-.174.3181.0316-.1686.0921-.4004.1969-.7114.0006.0089.0007.0182.0013.0272-.0807.2835-.1101.4901-.0242.3661ZM335.6131,105.2429c-.0922.2014-.2185.4966-.3869.9075.1556-.3599.2769-.7209.4041-1.0818-.0059.0596-.0109.1083-.0172.1743ZM449.6077,207.6463c.3768.3268.2615.2363,0,0h0ZM590.889,136.6521c-.3702,1.9529-1.0432,3.8782-1.6503,5.7607-.6031,1.8701-1.2503,3.7267-1.942,5.566-.2767.7358-.5712,1.4643-.8496,2.1993-.1292.341-.2164.5771-.2855.7675-.0839.1805-.1847.4-.3263.7148-1.613,3.5862-3.3345,7.1143-5.2435,10.5533-1.7169,3.093-3.5612,6.1146-5.5218,9.059-1.0893,1.6358-2.2164,3.2474-3.3792,4.8318-.3421.4662-.6904.9289-1.0391,1.391-.1799.2128-1.2435,1.5572-1.4197,1.7724-4.9806,6.0807-10.5046,11.7224-16.4951,16.8119-3.2207,2.7363-3.4145,2.8961-6.8884,5.3383-3.3759,2.3734-6.8677,4.5822-10.4623,6.6091-1.6385.924-3.2991,1.8069-4.9849,2.6415-.9506.4706-1.9096.923-2.8751,1.3621-.2302.1047-1.3826.5839-1.6837.715-3.8092,1.5027-7.7255,2.7592-11.7149,3.6844-.8223.1907-1.6485.3699-2.4769.5333-.8254.1631-1.6535.3115-2.4842.4451.9095-.0991.9361-.1008.0799-.005-2.2633.2671-4.5511.4007-6.8303.3984-1.7982-.0018-3.6113-.0686-5.4024-.2634.1473-.0197-2.3277-.4385-2.3894-.452-1.1984-.2618-2.3884-.5683-3.5616-.9265-.2954-.0902-.5842-.1956-.8761-.2925-.642-1.0121-1.2806-2.024-1.8494-3.0879-.3204-.5994-.6274-1.2073-.9232-1.8191-.0612-.1266-.323-.7421-.5325-1.2266,4.8466-5.1887,9.5297-10.5587,14.1901-15.8244,8.2933-9.3703,16.242-19.089,23.4566-29.3192,3.0611-4.3406,5.9581-8.8001,8.6649-13.3706,8.0004,1.1633,16.7673-.4199,24.4413-4.0575,7.0801-3.3561,13.1871-8.394,20.1443-11.9716-.2025.1041,1.3087-.5847,1.9559-.9025.7036-.2279,2.2372-.7697,2.016-.7056.6046-.1751,1.2159-.2912,1.8203-.4587.0259-.0071.0413-.0126.0659-.0196.0198.006.0299.0118.0524.0179.7057.1893,4.3409.2871,2.6532-.074.5914.11,1.1791.2333,1.7617.3887.8766.2337,3.4704,1.6862,1.0543.2526.4128.2449.8528.4953,1.2817.7292-.1203-.0552-.0848-.0218.2935.2022.0363.0215.0671.0455.1003.0684.004.0117.0077.023.0117.0347.0522.2803.1125.586.1633.799-.0717.3788-.1463,1.1199-.1198,1.129ZM590.9343,134.9303c-.0149-.0619-.0311-.1296-.0491-.2059.8504.6293.6639,1.6592.0491.2059ZM691.4808,128.7356c1.0331.3217.4829.1766,0,0h0ZM686.8146,127.4673c-.3015-.0671-.4473-.108,0,0h0ZM615.6551,205.7476c-.2469-.2105-.4952-.4189-.7435-.6276.0917.0741.3152.2614.7455.629-.0007-.0005-.0013-.0009-.002-.0015ZM702.8187,150.4765c-.0243.877-.1024,1.7469-.1519,2.6221-.0085.1512-.0131.2643-.0178.3805-.041.1517-.087.3323-.1445.577-.4099,1.7461-.8067,3.4661-1.3786,5.1719-.0206.0614-.9058,2.324-.817,2.2072-.2289.4941-.4657.9856-.7078,1.4696-1.0558,2.1111-2.2587,4.1484-3.57,6.1104-.5364.8026-1.0937,1.5959-1.6713,2.3716-.1512.1664-.9222,1.1163-1.1165,1.3447-1.4218,1.6721-2.9156,3.2816-4.4714,4.8298-1.4214,1.4146-2.8907,2.7808-4.399,4.1023-.9061.7939-1.8268,1.5709-2.7594,2.3334-.2095.1713-1.6317,1.2704-1.826,1.4318-3.6212,2.7006-7.3806,5.2254-11.2701,7.522-3.6478,2.1538-8.7443,4.7839-11.3383,5.7925-9.7498,3.791-16.0966,4.8159-26.045,4.4322-.2037-.0079-.6943-.0729-1.03-.1184-1.1426-.2038-2.2797-.4328-3.4045-.7238-.6949-.1797-1.3873-.375-2.0735-.5864-.3588-.1106-3.1854-1.1684-2.8952-.9931-1.7335-.7822-3.4218-1.6929-5.0385-2.6841-.7787-.4774-1.5285-.9911-2.2825-1.5029,4.9513-6.4323,9.5357-13.1356,13.7546-19.9805,4.6003-7.4639,8.7112-15.1813,12.5288-23.0505,1.4183-.5738,2.7515-1.4177,3.9085-2.5472,6.8141-6.6517,12.4274-11.5587,19.7407-16.1431,1.7351-1.0876,3.5068-2.1185,5.3206-3.0695,1.0671-.5594,2.1497-1.0817,3.2404-1.5933.3209-.1505.5413-.2587.7177-.3479.1884-.0521.4277-.1221.7751-.2308,1.8253-.5712,3.6134-1.197,5.4842-1.6205-.0615.0139,1.0323-.1863,1.6994-.3199.6937-.0334,2.4949-.1836,2.7853-.1863.994-.0092,1.9841.0377,2.9741.1185.1028.0255.2132.0528.3398.0844,1.0809.2694,2.1381.5466,3.2042.8715.1694.0516.3103.095.4386.1346.9688.457,1.9155.972,2.8242,1.5378.4001.2491,2.8218,2.2997.8636.5331.5024.4533,1.0065.8919,1.4894,1.3685.337.3326,2.0743,2.5457,1.8608,2.1315.761,1.1845,1.4303,2.4044,2.1406,3.6301.1077.1859.1954.3311.271.4518.0366.127.0804.2731.137.4515.2086.6577.4506,1.3002.6515,1.9617.3966,1.306.6899,2.6338.9502,3.9702.0051.1963.2349,1.7792.2528,2.0769.0736,1.2249.09,2.4509.0559,3.6772ZM849.0354,214.4275c-.0933-.0184-.1017-.5135-.079-1.1013.1699.5873.2778,1.1404.079,1.1013Z"/><path class="cls-2" d="M190.7953,45.9829c2.5856-1.2573,4.7745-4.4838,5.5148-7.1716.791-2.8725.4338-6.6974-1.2097-9.2467-1.6269-2.5234-4.0405-4.7418-7.0358-5.4745.5666-2.6855-.1797-6.0781-1.4717-8.286-1.4567-2.4892-4.3109-4.8632-7.1716-5.5147-3.0718-.6997-6.52-.5483-9.2467,1.2097-2.7463,1.7706-4.3951,4.0973-5.5147,7.1716-1.4854,4.0787-2.6947,8.2089-3.7073,12.3839-3.5454.7966-7.1274,1.4366-10.7246,1.9565-17.7795,2.2062-35.7545,1.9307-53.6332,2.4566-9.0255.2655-18.0623.7108-27.0249,1.8498-9.3645,1.1901-18.6509,2.78-27.5695,5.9623-9.5895,3.4216-18.5278,8.0392-26.1652,14.8466-7.3469,6.5483-13.1099,15.793-14.8696,25.5484C.4317,86.633.0231,89.6737.0008,92.688c-.0223,3.0266.4036,6.0287.8535,9.0153.7726,5.1297,2.6292,9.9142,4.7305,14.6328,1.8104,4.0654,4.1204,7.9004,6.7695,11.4727,3.2263,4.3505,6.6602,8.4971,10.618,12.202,14.8383,13.8897,33.8508,21.7745,50.5004,33.0714,1.7369,1.1785,3.439,2.4061,5.1147,3.6697,2.2592,1.8027,4.4411,3.7037,6.3377,5.8818.1559.2321.3018.4697.449.7067-1.1359.3813-2.2983.6973-3.4719.9341-2.7872.2418-5.6099.2185-8.3968.1786-4.7681-.0681-9.5341-.293-14.2943-.5677-10.2988-.5944-20.5862-1.4379-30.8516-2.4557-3.3926-.3364-6.7846-.6972-10.1682-1.1201-.0973-.0289-.1945-.0461-.2917-.0719-.1817-.0459-.3623-.0978-.5443-.1341-.262-.0533-.5239-.0871-.7858-.1174-.1379-.0165-.2752-.0358-.4124-.0461-.2096-.0145-.4193-.0154-.6288-.0151-.1281-.0004-.2589-.0149-.3856-.0092-.0888.004-.1751.018-.2635.0237-.091.0068-.182.0151-.273.0247-.5226.0445-1.0375.1158-1.5424.2192-1.4126.1392-2.7419.5839-3.9777,1.3707-2.4892,1.4567-4.8631,4.3108-5.5147,7.1716-.0234.1027-.0377.2086-.0591.3121-.2304.916-.3673,1.8745-.3696,2.878-.0189,8.4023,5.9006,15.4803,11.2564,21.3256,3.3905,3.7004,6.9993,7.1899,10.5989,10.6877-1.6318.5925-3.1468,1.5046-4.3739,2.7318-2.0813,2.0813-3.6486,5.4961-3.5147,8.4853.139,3.1035,1.1584,6.3223,3.5147,8.4853,2.3199,2.1297,5.2582,3.5812,8.4853,3.5147,3.8833-.0801,7.7646-.423,11.6306-.8941,1.4686,2.4642,4.2924,4.8015,7.127,5.447,3.0718.6997,6.52.5483,9.2467-1.2097,2.6337-1.6981,4.6603-4.0956,5.5147-7.1716.0682-.2457.1058-.488.1624-.7324,3.069-.6304,6.1312-1.2943,9.1833-1.9982,15.2734-3.5224,30.3984-7.7846,45.2688-12.7399,6.1086-2.0356,12.1846-4.1908,18.1497-6.6182,7.8621-3.1994,15.5421-6.735,22.4694-11.6965,7.798-5.5851,15.2578-12.3715,19.6172-21.0793,2.6365-5.2662,4.0626-10.3685,4.5952-16.2158.2296-2.5202.0089-4.9693-.3272-7.4706-.3757-2.7962-.8741-5.4852-1.8804-8.131-2.3621-6.2111-5.5709-11.5114-9.9767-16.5043-3.5239-3.9935-7.8707-7.4457-12.4366-10.1675-4.6904-2.796-9.9627-4.9118-15.2866-6.1312-5.9606-1.3652-12.1104-1.8873-18.1904-2.4372-2.0529-.1857-4.1041-.3895-6.1509-.6329-3.4583-.5495-6.8761-1.3324-10.163-2.54-1.4379-.6853-2.8199-1.4681-4.1372-2.3629-.6014-.5309-1.1783-1.0853-1.7205-1.6768-.4077-.6224-.7858-1.2618-1.1287-1.9227-.2301-.6866-.4244-1.3829-.5829-2.0892-.0178-.4258-.02-.8516-.0079-1.2773.0567-.2306.1273-.4587.1946-.6866.0413-.0718.0936-.1379.1362-.209.1519-.1555.3168-.2997.4752-.449.5453-.3428,1.1042-.6618,1.6791-.954,2.3969-.859,4.8754-1.457,7.3727-1.9633,3.2115-.6511,6.4444-1.1866,9.6872-1.655,14.3147-1.7693,28.8049-1.7737,43.1197-.0025,1.1318.1635,2.2645.3207,3.3934.5048,1.595.5001,3.1901.5715,4.7852.2143,1.597-.0724,3.0842-.5471,4.4615-1.424,1.6906-.9893,3.3141-2.6284,4.3949-4.4713.8807-.7817,1.6374-1.6971,2.1974-2.7571,1.5574-2.9476,1.9163-5.9654,1.2097-9.2467-.5646-2.6218-1.024-5.2622-1.4179-7.914-1.0985-9.292-1.1277-18.6761-.103-27.9746,3.0929-1.166,6.1373-2.4703,9.124-3.9226ZM135.8299,77.6985c-5.6021.1721-11.1962.6156-16.7555,1.328-6.2171.7968-12.4759,1.6571-18.5758,3.1336-6.092,1.4746-11.9454,4.0591-16.5693,8.3703-5.0806,4.7369-7.6697,11.5579-7.8635,18.412-.0413,1.46.1617,2.8771.356,4.3231.204,1.5177.3921,3.0074.8157,4.4806.8121,2.824,2.0042,5.6506,3.5659,8.1448,3.3145,5.2938,8.1226,9.6673,13.6684,12.5395,5.5433,2.8708,11.4928,4.6693,17.6485,5.5829,6.287.933,12.6232,1.3245,18.9258,2.0815,3.5493.5485,7.04,1.3373,10.4084,2.5735,2.4108,1.1236,4.7037,2.4603,6.8689,4.0025,1.9354,1.6231,3.7198,3.4042,5.3425,5.3398,1.2198,1.7298,2.2942,3.5483,3.2097,5.4576.5177,1.4445.929,2.9186,1.2267,4.4238.0891,1.306.0861,2.6122-.0066,3.9181-.2755,1.376-.6582,2.7237-1.1284,4.0471-.8478,1.7517-1.8417,3.4215-2.96,5.0146-2.2735,2.7429-4.8464,5.2083-7.6144,7.4503-5.2433,3.8368-10.9641,6.9613-16.9138,9.5633-10.0618,4.145-20.4436,7.5493-30.8484,10.707-12.9711,3.9367-26.0952,7.4238-39.3531,10.2561-1.6322.3487-3.2671.6863-4.9044,1.0123-.4545-.5405-.9099-1.0742-1.3638-1.5933-3.5663-4.0792-7.4515-7.8633-11.3434-11.6368,9.0704.7602,18.157,1.4041,27.2531,1.7092,10.1146.3394,20.6459.4238,29.7192-4.8126,5.0897-2.9373,9.1259-7.7012,10.7056-13.4119,1.6918-6.116.322-12.5347-2.694-17.9872-2.1868-3.9534-5.369-7.5052-8.7922-10.4393-3.5752-3.0643-7.3454-5.9293-11.2175-8.6081-12.6146-8.7272-26.6109-15.2278-39.1932-24.0056-1.2173-.8492-2.4042-1.7398-3.5894-2.6329-4.0109-3.2706-7.6766-6.9414-10.932-10.9655-2.4116-3.2917-4.5344-6.7829-6.2595-10.4803-1.1158-2.8587-1.9674-5.8027-2.4988-8.8234-.1783-2.0828-.1869-4.1689-.0129-6.2518.3479-1.8469.8437-3.6558,1.4868-5.4216.8439-1.7522,1.8272-3.4255,2.9413-5.0197,1.7391-2.0693,3.674-3.9517,5.7648-5.6674,3.3651-2.4061,6.988-4.4176,10.7556-6.1254,7.9166-3.1837,16.243-5.1357,24.6724-6.3784,15.1053-1.8942,30.376-1.928,45.5742-2.2474,13.9487-.2931,27.9796-.8157,41.7867-2.9474-.3671,6.0877-.2969,12.1993.2526,18.2783.1221,1.3512.2661,2.702.4222,4.0517-7.3007-.6832-14.6321-.9714-21.9809-.7457Z"/><path class="cls-1" d="M424.892,106.5636c3.0768,0,6.3091-1.3386,8.4853-3.5148,2.0813-2.0813,3.6486-5.496,3.5147-8.4852-.2912-6.5016-5.2726-12-12-12-3.0768,0-6.3091,1.3386-8.4853,3.5147-2.0813,2.0813-3.6486,5.496-3.5147,8.4853.2912,6.5016,5.2726,12,12,12Z"/></svg>