<svg id="svg" xmlns="http://www.w3.org/2000/svg" xmlns:xlink="http://www.w3.org/1999/xlink" width="400" height="400" viewBox="0, 0, 400,400"><g id="svgg"><path id="path0" d="M179.388 1.194 C 136.339 8.424,100.785 37.404,84.474 78.560 C 77.373 96.477,75.781 107.250,75.781 137.380 L 75.781 160.714 69.541 161.142 C 59.010 161.864,52.177 166.780,48.268 176.448 L 46.484 180.859 46.266 279.297 C 46.049 377.177,46.057 377.763,47.674 382.813 C 49.833 389.553,53.705 394.717,58.782 397.629 L 62.891 399.985 200.000 399.985 L 337.109 399.985 341.218 397.629 C 346.226 394.757,350.123 389.609,352.297 382.991 C 354.795 375.386,354.829 186.670,352.333 178.793 C 348.532 166.798,340.574 160.938,328.087 160.938 L 324.219 160.938 324.219 137.492 C 324.219 107.239,322.634 96.495,315.526 78.560 C 293.788 23.708,237.112 -8.499,179.388 1.194 M218.614 54.625 C 243.456 61.846,262.851 81.282,269.515 105.634 C 271.799 113.981,272.627 124.022,272.643 143.555 L 272.656 160.938 200.000 160.938 L 127.344 160.938 127.357 143.555 C 127.373 124.022,128.201 113.981,130.485 105.634 C 140.852 67.751,181.945 43.966,218.614 54.625 M210.991 225.479 C 231.204 231.481,240.187 256.417,228.638 274.470 C 227.138 276.815,225.530 278.969,225.065 279.257 C 224.482 279.617,224.218 288.937,224.216 309.226 C 224.212 348.899,225.517 346.869,200.000 346.869 C 174.483 346.869,175.788 348.899,175.784 309.226 C 175.782 288.937,175.518 279.617,174.935 279.257 C 170.903 276.765,166.268 264.888,166.268 257.045 C 166.268 234.137,188.146 218.695,210.991 225.479 " stroke="none" fill="#000000" fill-rule="evenodd"></path></g></svg>