<?xml version="1.0" encoding="UTF-8"?><svg id="Layer_1" xmlns="http://www.w3.org/2000/svg" xmlns:xlink="http://www.w3.org/1999/xlink" viewBox="0 0 1205.3254 872.4264"><defs><style>.cls-1{fill:url(#linear-gradient-5);}.cls-2{fill:url(#linear-gradient-4);}.cls-3{fill:url(#linear-gradient-3);}.cls-4{fill:url(#linear-gradient-2);}.cls-5{fill:url(#linear-gradient);}</style><linearGradient id="linear-gradient" x1="0" y1="691.8567" x2="1131.3046" y2="691.8567" gradientUnits="userSpaceOnUse"><stop offset="0" stop-color="#4000ff"/><stop offset="1" stop-color="#d500e9"/></linearGradient><linearGradient id="linear-gradient-2" x1="153.887" y1="96.7375" x2="1285.1916" y2="96.7375" xlink:href="#linear-gradient"/><linearGradient id="linear-gradient-3" x1="153.887" y1="126.1839" x2="1285.1916" y2="126.1839" xlink:href="#linear-gradient"/><linearGradient id="linear-gradient-4" x1="153.887" y1="130.9941" x2="1285.1916" y2="130.9941" xlink:href="#linear-gradient"/><linearGradient id="linear-gradient-5" x1="153.887" y1="94.5636" x2="1285.1916" y2="94.5636" xlink:href="#linear-gradient"/></defs><path class="cls-5" d="M0,511.2869v361.1395h1131.3046v-361.1395H0ZM930.4587,655.7492c.4839-1.4877,1.311-2.775,2.4812-3.8619l4.3478-4.3478c1.4973-1.4872,3.2623-2.5159,5.2952-3.0861l3.1901-.4286c2.166.0067,4.1851.5529,6.0566,1.6383.8096.6255,1.6191,1.2509,2.4287,1.8764,1.1702,1.0869,1.9972,2.3742,2.4812,3.8619.7512,1.4301,1.0957,2.9712,1.0334,4.6234.0623,1.6522-.2822,3.1932-1.0334,4.6234-.484,1.4877-1.311,2.775-2.4812,3.8619-1.4493,1.4493-2.8987,2.8986-4.3479,4.3478-1.4973,1.4872-3.2623,2.5159-5.2952,3.0861l-3.1901.4286c-2.1661-.0067-4.1849-.5528-6.0566-1.6383-.8095-.6255-1.6191-1.2509-2.4286-1.8764-1.1702-1.0869-1.9973-2.3742-2.4812-3.8619-.7513-1.4301-1.0958-2.9712-1.0335-4.6234-.0623-1.6522.2822-3.1932,1.0335-4.6234ZM476.4182,647.5395c2.1761-2.1761,5.4084-3.5147,8.4853-3.5147,6.7274,0,11.7088,5.4984,12,12,.1339,2.9892-1.4334,6.4039-3.5147,8.4852-2.1761,2.1761-5.4084,3.5148-8.4853,3.5148-6.7274,0-11.7088-5.4984-12-12-.1339-2.9893,1.4334-6.404,3.5147-8.4853ZM241.7858,639.3413c.3939,2.6518.8533,5.2922,1.4179,7.914.7066,3.2813.3477,6.2991-1.2097,9.2467-.5601,1.06-1.3167,1.9753-2.1974,2.7571-1.0808,1.8429-2.7043,3.482-4.3949,4.4713-1.3774.877-2.8646,1.3516-4.4615,1.424-1.5951.3572-3.1901.2858-4.7852-.2143-1.1288-.1841-2.2616-.3412-3.3934-.5048-14.3148-1.7712-28.805-1.7668-43.1197.0025-3.2428.4683-6.4756,1.0039-9.6872,1.655-2.4973.5063-4.9758,1.1043-7.3727,1.9633-.575.2922-1.1339.6113-1.6791.954-.1583.1493-.3233.2935-.4752.449-.0426.071-.0949.1372-.1362.209-.0673.2278-.1379.456-.1946.6866-.0121.4257-.0098.8515.0079,1.2773.1586.7064.3528,1.4026.5829,2.0892.3429.6609.7211,1.3002,1.1287,1.9227.5422.5915,1.1191,1.1458,1.7205,1.6768,1.3173.8948,2.6993,1.6776,4.1372,2.3629,3.2869,1.2076,6.7047,1.9905,10.163,2.54,2.0468.2435,4.098.4473,6.1509.6329,6.08.5499,12.2299,1.072,18.1904,2.4372,5.3239,1.2194,10.5963,3.3352,15.2866,6.1312,4.5659,2.7218,8.9127,6.1741,12.4366,10.1675,4.4058,4.9929,7.6146,10.2933,9.9767,16.5043,1.0063,2.6459,1.5046,5.3348,1.8804,8.131.3361,2.5013.5568,4.9504.3272,7.4706-.5326,5.8474-1.9587,10.9496-4.5952,16.2158-4.3595,8.7078-11.8192,15.4942-19.6172,21.0793-6.9273,4.9615-14.6073,8.4971-22.4694,11.6965-5.965,2.4274-12.041,4.5826-18.1497,6.6182-14.8704,4.9553-29.9954,9.2175-45.2688,12.7399-3.0521.7039-6.1143,1.3678-9.1833,1.9982-.0566.2444-.0942.4867-.1624.7324-.8544,3.0759-2.881,5.4735-5.5147,7.1716-2.7267,1.7579-6.1749,1.9094-9.2467,1.2097-2.8346-.6456-5.6584-2.9828-7.127-5.447-3.866.4711-7.7473.814-11.6306.8941-3.2271.0665-6.1653-1.385-8.4853-3.5147-2.3563-2.163-3.3757-5.3818-3.5147-8.4853-.1339-2.9892,1.4334-6.404,3.5147-8.4853,1.2271-1.2272,2.7421-2.1393,4.3739-2.7318-3.5996-3.4977-7.2084-6.9873-10.5989-10.6877-5.3558-5.8453-11.2753-12.9232-11.2564-21.3256.0023-1.0035.1392-1.962.3696-2.878.0214-.1035.0357-.2094.0591-.3121.6516-2.8608,3.0255-5.7149,5.5147-7.1716,1.2358-.7868,2.5651-1.2316,3.9777-1.3707.5049-.1034,1.0198-.1747,1.5424-.2192.091-.0096.182-.0179.273-.0247.0884-.0057.1747-.0198.2635-.0237.1266-.0057.2575.0089.3856.0092.2096-.0003.4193.0006.6288.0151.1371.0104.2745.0297.4124.0461.262.0303.5239.064.7858.1174.182.0363.3626.0882.5443.1341.0973.0258.1945.043.2917.0719,3.3835.4229,6.7756.7837,10.1682,1.1201,10.2653,1.0179,20.5528,1.8614,30.8516,2.4557,4.7603.2748,9.5262.4996,14.2943.5677,2.7869.0399,5.6096.0632,8.3968-.1786,1.1736-.2368,2.3361-.5528,3.4719-.9341-.1472-.2369-.293-.4746-.449-.7067-1.8966-2.1781-4.0786-4.079-6.3377-5.8818-1.6758-1.2635-3.3778-2.4911-5.1147-3.6697-16.6496-11.2969-35.6622-19.1817-50.5004-33.0714-3.9579-3.7049-7.3918-7.8515-10.618-12.202-2.6492-3.5723-4.9591-7.4073-6.7695-11.4727-2.1013-4.7186-3.9578-9.5031-4.7305-14.6328-.4498-2.9865-.8758-5.9887-.8535-9.0153.0222-3.0142.4309-6.0549.9645-9.0132,1.7598-9.7554,7.5228-19.0001,14.8696-25.5484,7.6374-6.8074,16.5757-11.425,26.1652-14.8466,8.9186-3.1823,18.205-4.7722,27.5695-5.9623,8.9626-1.139,17.9995-1.5843,27.0249-1.8498,17.8787-.5259,35.8537-.2504,53.6332-2.4566,3.5972-.5199,7.1792-1.16,10.7246-1.9565,1.0126-4.175,2.222-8.3052,3.7073-12.3839,1.1196-3.0743,2.7684-5.4009,5.5147-7.1716,2.7267-1.7579,6.1749-1.9094,9.2467-1.2097,2.8608.6516,5.715,3.0255,7.1716,5.5147,1.2921,2.2079,2.0383,5.6005,1.4717,8.286,2.9954.7327,5.4089,2.951,7.0358,5.4745,1.6436,2.5493,2.0007,6.3742,1.2097,9.2467-.7402,2.6878-2.9291,5.9142-5.5148,7.1716-2.9867,1.4523-6.0311,2.7566-9.124,3.9226-1.0248,9.2985-.9955,18.6826.103,27.9746ZM1051.2152,736.0086c-.0725,1.597-.5471,3.0842-1.4241,4.4616-5.2145,11.5013-13.2178,22.021-22.6819,30.3618-9.4287,8.3096-19.9916,14.608-31.7239,19.0715-4.9457,1.8816-10.0708,3.2962-15.2876,4.1864-7.2917,1.2443-15.2054,2.3535-22.4456.1572-4.1677-1.2643-8.0985-3.4701-11.1609-6.5964-2.9814-3.0435-4.7134-6.355-6.2733-10.2416-1.0123-2.5224-1.4817-5.2277-1.7933-7.9274-6.1412,6.1976-12.2891,12.5242-19.0011,17.936-5.7756,4.6567-12.8833,8.1685-20.4978,6.3525-6.7111-1.6006-11.7497-7.0774-13.3227-13.7081-1.5104-6.3667.2667-12.9427,1.6006-19.1722,1.0593-4.9469,2.1956-9.877,3.3896-14.793-6.8979,7.7471-14.1208,15.1999-21.6562,22.308-10.2896,9.7062-22.3325,22.65-36.9458,24.9457-15.9077,2.499-28.6681-6.8555-34.253-21.3818-1.882-4.8951-2.6094-9.8787-2.5368-14.8596-1.217.8911-2.4338,1.7825-3.6508,2.6738-11.3404,8.3052-22.6077,16.7973-34.7394,23.9343-23.1715,13.6317-51.772,22.861-77.9626,12.3345-9.2421-3.7145-17.5203-8.9468-24.3759-15.9124-7.0634,6.6047-14.6942,12.5719-22.96,17.6227-23.8027,14.5444-57.6565,22.7407-83.6433,9.1094-5.2516-2.7548-9.5862-6.2723-13.1867-10.3331-3.4321-1.9149-6.5802-4.2233-9.4207-6.8634-8.1854,4.2216-17.3568,5.475-26.5078.7949-6.119-3.1295-10.6904-8.6049-14.1861-14.7959-3.9744,8.114-8.7264,15.8122-15.0875,22.3533-8.1913,8.4231-19.9109,15.2156-32.0542,13.902-11.0219-1.1923-20.4292-6.9367-26.129-16.5416-4.9597-8.3579-6.6765-18.4058-7.0404-27.9842-.6088-16.0259,2.5717-33.2628,8.0667-48.6097-5.678.1942-11.4092-.2224-16.9649-1.3064-2.4431,2.5153-5.0392,4.8898-7.4395,7.2472-7.1077,6.9807-14.2153,13.9614-21.323,20.9421-11.534,11.3279-22.9344,23.4345-36.9608,31.7428-13.0421,7.7253-29.5364,11.7947-44.2438,6.4151-24.3332-8.9003-36.1857-35.8799-34.3924-60.5927,2.0101-27.7012,23.1453-60.6553,54.5359-57.669,16.4896,1.5687,31.0226,12.3209,32.8298,29.5295,1.4872,14.1622-7.7057,29.9759-22.2909,32.7924-6.6168,1.2778-12.6311-1.7984-14.7614-8.3813-1.8876-5.833,2.2054-13.5688,8.3813-14.7614.6567-.1268,1.2874-.2956,1.9188-.479.054-.0352.1031-.0674.1664-.1083.0623-.0403.0952-.0622.1465-.0957.2665-.2552.5403-.5092.7983-.7454.025-.0228.0414-.0363.0648-.0574.2177-.5005.6011-.9947.8831-1.4639.0404-.0672.0765-.1379.1106-.2094.2542-1.2283.3438-1.1603.2484-.7262.0436-.126.0935-.2505.1216-.38.0685-.3159.1484-.6344.2201-.9543.0244-.1465.074-.3839.1584-.733-.0002-.0214.0007-.0434-.0003-.0643-.0289-.5983-.0806-1.2804-.0544-1.8992-.1538-.5176-.3058-1.0875-.4219-1.6036-.3132-.4804-.5803-1.028-.8753-1.5229-.038-.0353-.0704-.0657-.1125-.1046-.5124-.4738-1.0496-.9636-1.5441-1.4641-.6466-.3618-1.2853-.7893-1.9249-1.1598-.1257-.0728-.4908-.2402-.8102-.3862-.5064-.1659-1.2867-.4342-1.4424-.4792-.6526-.1887-1.3156-.3198-1.9721-.493-.1437-.0379-.2612-.0671-.3648-.0921-.5057-.0415-1.0104-.0837-1.5187-.1022-.8558-.0312-1.7122-.0214-2.5674.0205-.1381.0068-.5034.0419-.8431.074-.5583.117-1.5282.2978-1.5411.3009-.4963.122-.9835.2715-1.475.4098-.4571.1286-1.192.3885-1.3159.4131-.4838.2267-.9641.4668-1.4324.7139-1.3408.7075-2.6185,1.5148-3.8701,2.3679-.2264.1543-.3939.2647-.537.3572-.1324.1349-.3218.3187-.6069.5831-.4192.3889-.8464.7672-1.2601,1.162-.9688.9245-1.8974,1.8905-2.7836,2.8946-.3875.439-.7632.8937-1.1357,1.349-.1826.2455-.4795.6401-.5583.7599-.7434,1.1306-1.5123,2.2395-2.2128,3.3983-.897,1.4836-1.7318,3.0043-2.5039,4.5566-.2373.4771-.4543.9701-.6877,1.4514-.6994,2.0453-1.4466,4.0464-1.98,6.1527-.3018,1.1918-.5634,2.3944-.7864,3.6035-.0243.1316-.0446.264-.0665.3962.045-.1877.0345-.0318-.1653,1.035-.1705,2.3127-.3392,4.6014-.3142,6.9241.0209,1.951.1593,3.8882.3535,5.8256-.0518-.6874.2941,1.8068.4291,2.4715.2125,1.0461.4542,2.0862.7241,3.119.344,1.3165.7309,2.6214,1.1687,3.9099.0951.2799.404,1.1336.6165,1.726.1204.2919.2681.6478.3396.7943.2578.5289.5086,1.0606.7772,1.5844.4657.9083.9586,1.8026,1.483,2.6784.6178,1.0318,1.3456,1.9931,1.9851,3.0068.2229.2694.444.5407.6746.8018.6519.738,1.3325,1.4504,2.0407,2.1345.1431.1382.8577.7816,1.3945,1.2693.3455.2141,1.6993,1.2198,2.1134,1.4726.9169.5599,1.9427.9803,2.8516,1.5427.2603.0991.5206.1983.7845.2868,1.1003.3691,2.2222.6777,3.356.9257.3045.0666.6116.1181.9177.1746.3004.0447.7209.1021.9287.1038,1.5818.0134,3.1397.0616,4.7229.0035.0336-.0012.3044-.024.577-.0458.4454-.0747,1.2573-.1973,1.4286-.2324,1.334-.2729,2.6537-.6107,3.9556-1.0104.9366-.2875,1.8563-.621,2.7768-.9556.1172-.0426.2138-.0771.293-.1047.0414-.0192.0725-.034.1209-.0563,1.2724-.5849,2.5246-1.2111,3.7545-1.8812,2.6915-1.4664,5.2746-3.1268,7.7712-4.9029.7864-.5594,1.568-1.1288,2.3342-1.7161.1703-.1402.3937-.3242.6969-.5742,1.1312-.9326,2.2568-1.8699,3.3646-2.8303,2.3621-2.0479,4.6609-4.1674,6.923-6.3248,10.7344-10.2375,21.1973-20.773,31.7802-31.1669,1.0796-1.0602,2.1588-2.1208,3.2387-3.1808-1.5297-1.1614-3.0015-2.4069-4.3922-3.7584-8.8395-8.5906-13.1901-21.5204-9.1663-33.4669,3.8649-11.4747,14.1414-21.221,26.9122-20.4205,9.2618.5805,13.5613,8.6612,10.8562,16.7326.0071.0543.0129.1104.0182.1675.0496-.0787.0576-.0431.0145.1332.0194.2878.0192.5981.0063.8876.0527.2162.0966.4346.1583.6485.1975.5661.364,1.1541.5398,1.7282.0887.262.1908.519.2884.7776.2676.5157.4924,1.0598.7451,1.5826.7132,1.4753,1.4722,2.9279,2.203,4.3945,2.8975,5.8146,5.3652,11.7233,5.7545,18.0157,2.3494.1639,4.7057.2104,7.0592.1183,1.2627-.0494,2.5199-.1506,3.7769-.2673-.2913.0091,2.0341-.2714,2.1895-.299,2.6279-.4667,5.2291-1.0941,7.7836-1.8672,7.2502-9.2024,16.783-16.2302,29.1091-17.9916,5.5331-.7907,10.4026.6302,13.5517,5.5148,2.9267,4.5394,1.6494,10.7927-1.8763,14.5419-7.2086,7.6655-16.0018,13.6579-25.6185,17.8334-.7075,1.1985-1.3904,2.4115-2.0259,3.6495-.6028,1.1744-1.1531,2.3708-1.717,3.5638-.057.1205-.1068.2258-.1519.321-.8373,2.0479-1.6066,4.1243-2.3132,6.2206-2.4804,7.36-4.2524,14.9492-5.6248,22.5881-.2232,1.2424-.4161,2.4891-.629,3.7331-.0209.1223-.0365.2081-.0535.3043-.0078.0797-.0134.1422-.0231.2372-.1956,1.9244-.4008,3.8436-.5191,5.7751-.2192,3.5769-.2509,7.1692-.0231,10.7465.0613.9635.1582,1.9218.2545,2.8808.0119.1142.0255.2484.0414.4092.0093.0583.0187.1138.0284.1612.3672,1.8076.6975,3.606,1.2087,5.3819.2465.8565.5615,1.6884.8195,2.54.0266.0876.0422.1463.0632.2191.0216.0392.0365.0641.0601.1078.6487,1.1997,1.3117,2.3481,2.0121,3.515.2485.2817.4948.5654.7576.8342.2104.2148.4302.4161.6496.6183.0668.0175.9999.7419,1.4077.9736.2061.1171.5308.25.8324.3636,1.2297.2758,3.3564.6799,2.5352.7006.5609.0208,1.1213.0227,1.6801.0071-.0812-.0505,1.7407-.2916,2.0854-.3892.5097-.1452,1.0084-.3237,1.5074-.5011.162-.0797.378-.1837.6658-.3203.6335-.3862,1.3014-.7127,1.9358-1.1007.0823-.0504,1.6947-1.1555,1.8711-1.2277.7073-.5776,1.3934-1.189,2.0562-1.8087,1.6986-1.5882,3.2669-3.3058,4.7505-5.0948.1741-.2148.3591-.445.4133-.5203.6923-.9636,1.3705-1.9349,2.0181-2.9293,2.7722-4.2567,5.0969-8.8245,7.2256-13.4313,1.61-3.4843,3.496-8.3767,5.0366-13.1957,1.1398-3.5655,2.13-7.1782,2.9843-10.8227-1.5846-16.6581-.0077-33.7009,1.7295-50.2173.6343-6.0311,4.1182-10.9409,10.405-11.7856,5.2793-.7094,12.2883,2.7166,13.1664,8.5956.1587,1.0624.2872,2.1267.4255,3.1905.001-.0001.0021-.0003.0032-.0004-.0005.0046-.0009.0091-.0014.0137,2.2278,17.1467,1.8001,34.4498-1.515,51.2618.0255.2182.0462.437.0732.655.0084.0676.0139.1136.0208.17.0193.1098.0447.2603.0816.4874.1035.6375.2031,1.2753.3148,1.9114.9977,5.6839,2.8387,12.5394,4.7312,17.0732.5273,1.2634,2.1493,4.5504,3.3013,6.4909.5103.8595,1.0506,1.7216,1.6407,2.5356.034-.047,1.2229,1.274,1.4949,1.5455.1014.1012.2068.201.3076.2949.0839.0535.2649.166.4464.2811.286-.0109,1.4065.2731,1.6788.4266.0568-.0172.1159-.0349.1877-.0557.0961-.0279.1921-.0541.2882-.0811-.1294-.3554-.2735-.7019-.3961-1.0613-4.9589-14.542-2.3017-31.7748,9.1964-42.5045,7.637-7.1266,20.221-2.0747,20.4853,8.4853.0571,2.283.13,4.5687.2314,6.8536,11.9067-13.212,22.4485-26.1063,31.4893-41.6301-.853-1.4448-1.6153-3.0077-2.2595-4.712-5.9407-15.7161,2.8998-34.6204,10.1476-48.4144,14.5585-27.7073,38.7476-50.8207,67.2706-63.7519,5.5394-2.5114,11.5945-1.9386,15.4801,3.0907,3.3043,4.2769,3.7144,12.0326-.9382,15.7562-10.477,8.3851-21.0474,16.8442-29.8732,27.0156-7.3485,8.4689-13.2748,20.3597-17.2341,30.9333-3.5409,9.4562-6.7072,19.0283-10.4163,28.4093.2843-.0995.5662-.2054.8475-.3126.1141-.062.2408-.1307.3965-.2153,15.3773-8.3459,29.686-21.0099,48.4902-15.5739,8.8257,2.5513,16.7474,8.9774,19.1984,18.113,2.569,9.5759-1.2116,19.7349-4.7704,28.5764-2.1851,5.4284-4.6615,10.6923-7.4211,15.7854.0054.0099.0106.0198.0161.0297,5.7742-8.5002,10.9653-17.3978,15.6105-26.5606,12.6221-24.8976,20.7162-48.3832,32.509-74.2569,11.378-24.9636,25.177-49.0442,44.5892-68.6868,3.8569-3.9027,9.8309-4.3654,14.5419-1.8763,4.3397,2.2928,7.3358,8.8374,5.5147,13.5517-11.9317,30.8882-25.9184,60.9184-41.9487,89.8394,7.4122-1.8505,15.0959-2.1169,22.8843-.0005,22.6714,6.1607,33.4993,29.8549,30.5442,51.8475-1.057,7.8661-3.8376,15.0872-7.7714,21.6823,8.9875-6.4843,17.9384-13.0261,26.8588-19.6082,1.0038-2.9384,1.9065-5.9115,2.6022-8.963,1.6474-7.2263,2.1711-12.8005,2.6766-20.5996,1.8288-28.2159,1.5925-57.9067,20.3246-81.0543,15.905-19.6541,47.2452-26.1938,67.5424-9.4614,22.9187,18.8934,12.4513,52.6692-2.7473,72.6659-17.9222,23.5803-42.1093,41.4196-65.79,58.7833-1.6013,1.1741-3.2043,2.346-4.8059,3.5198-2.0919,5.4724-4.1351,10.9579-5.408,16.6992-.2001.9028-.3972,1.8256-.5349,2.7458.0044.0435.0012.1785-.0181.4974-.0695,1.149-.0999,2.2928-.0488,3.444.0493,1.1108.514,2.8058.0051.7755.2844,1.1348.4661,2.2813.7963,3.4076.1757.5994.382,1.1857.5884,1.7729.6526.8451,1.1016,2.0018,1.6644,2.9205.0151.0247.0436.0638.0745.1055.2497.257.6115.64.7346.7638.2399.2411.4911.4677.7396.6981.0247.0135.0431.0236.0692.0378.3342.1823.6658.3669.9973.5522.106.0356.226.0762.3669.1244.216.0738.3597.13.4564.1739.1503-.0068.377-.0059.7357.0107.2077.0096,1.0093-.0773,1.2073-.079.3701-.0899.7385-.1891,1.101-.2932.4163-.1194.8335-.2504,1.2457-.3928.1044-.0727,1.0386-.4985,1.1472-.5616,1.5087-.8757,2.9886-1.7579,4.4348-2.738,1.42-.9624.4274-.2208,1.749-1.3027,2.3694-1.9395,4.671-3.9648,6.9602-5.9977,9.3804-8.3303,18.311-17.1673,26.7497-26.45,16.5685-18.2258,30.1902-36.9847,42.8098-58.7831,3.0152-5.2084,9.5616-7.1986,14.985-4.9099,5.0178,2.1176,9.0988,8.5921,6.948,14.1566-8.7181,22.5554-16.0155,45.6436-21.7563,69.1357-.8304,3.3984-1.6182,6.8071-2.3843,10.2206,2.33-2.2512,4.66-4.5023,6.9899-6.7535,11.6585-11.2642,23.3755-22.4724,35.0083-33.765.9646-1.4554,2.1855-2.6545,3.6738-3.5862,2.5397-2.4739,5.0824-4.9449,7.6111-7.4299,6.4774-6.3655,12.8608-12.8325,18.9673-19.5566,3.3207-3.6566,6.5603-7.3878,9.6796-11.2179.5173-.6352,1.0314-1.2732,1.5421-1.9137-.026.0326,1.1077-1.431,1.4255-1.8325.9038-1.1932,1.7872-2.4017,2.6626-3.616-8.384.3034-16.7598.8351-25.1157,1.5941-3.1299.2843-6.2622-1.474-8.4854-3.5147-2.3562-2.163-3.3757-5.3818-3.5146-8.4853-.1339-2.9892,1.4333-6.404,3.5146-8.4853,2.374-2.374,5.241-3.22,8.4854-3.5147,4.8474-.4403,9.7012-.8082,14.5601-1.096,8.3284-.4932,16.6689-.754,25.0105-.7897.3882-.8652,1.0347-2.3135,1.1104-2.4483.3921-.9542.7717-1.9141,1.1345-2.8793.7018-1.8676,1.3542-3.7537,1.953-5.6568,1.3303-4.2288,2.3665-8.5316,3.1664-12.8911,1.2115-6.6021,8.8806-9.7207,14.7615-8.3813,6.6963,1.5253,9.5104,8.6083,8.3813,14.7615-1.141,6.2175-2.8423,12.2414-4.9767,18.0912.0562.0029.1122.0046.1683.0075,3.302.1695,6.0703,1.2977,8.4854,3.5147,2.3562,2.163,3.3757,5.3818,3.5146,8.4853.1339,2.9892-1.4333,6.4039-3.5146,8.4852-2.0676,2.0677-5.509,3.6675-8.4854,3.5148-3.8357-.197-7.6742-.3344-11.5135-.4371-4.2738,7.1661-9.0914,14.0359-14.239,20.6171-12.4618,15.9325-26.9564,30.0762-41.4747,44.1051-2.2928,3.5423-4.293,7.2598-5.9943,11.1263-1.6339,4.1602-2.9728,8.4878-3.741,12.8893-.1976,2.0729-.233,4.1533-.0708,6.2289.1777.874.4003,1.7361.6764,2.5836.1587.2971.3262.5892.502.8762.0867.0898.1678.186.2566.2736.1353.0817.2671.1711.4048.2484.4404.1316.8855.2447,1.3345.3428,2.293.1331,4.5905-.0123,6.875-.2654,6.2029-.9516,12.2645-2.6256,18.094-4.9465,5.8976-2.6278,11.4802-5.9008,16.6635-9.7501,4.9122-3.9512,9.3878-8.4102,13.3368-13.3248,3.4104-4.6149,6.3455-9.558,8.7172-14.7891,1.2656-2.7915,4.3751-4.6097,7.1715-5.5147,3.088-.9993,6.4618-.2617,9.2468,1.2097,2.5959,1.3716,4.7482,4.3881,5.5146,7.1716.5001,1.595.5715,3.1901.2144,4.7851Z"/><path class="cls-4" d="M1086.8269,107.3966c.8096.6255,1.6191,1.2509,2.4286,1.8764,1.8717,1.0855,3.8906,1.6316,6.0566,1.6383l3.1901-.4286c2.0329-.5701,3.7979-1.5988,5.2952-3.0861,1.4492-1.4493,2.8986-2.8986,4.3479-4.3478,1.1702-1.0869,1.9972-2.3742,2.4812-3.8619.7512-1.4301,1.0957-2.9712,1.0334-4.6234.0623-1.6522-.2822-3.1933-1.0334-4.6234-.484-1.4877-1.311-2.775-2.4812-3.8619-.8096-.6255-1.6191-1.2509-2.4287-1.8764-1.8716-1.0854-3.8906-1.6316-6.0566-1.6383l-3.1901.4286c-2.0329.5701-3.7979,1.5988-5.2952,3.0861l-4.3478,4.3478c-1.1702,1.0869-1.9973,2.3742-2.4812,3.8619-.7513,1.4301-1.0958,2.9712-1.0335,4.6234-.0623,1.6522.2822,3.1933,1.0335,4.6234.4839,1.4877,1.311,2.775,2.4812,3.8619Z"/><path class="cls-3" d="M1199.3732,162.5907c-2.785-1.4714-6.1588-2.209-9.2468-1.2097-2.7964.905-5.9059,2.7232-7.1715,5.5147-2.3717,5.231-5.3068,10.1741-8.7172,14.7891-3.949,4.9146-8.4246,9.3736-13.3368,13.3248-5.1832,3.8493-10.7659,7.1223-16.6635,9.7501-5.8295,2.3209-11.8911,3.9949-18.094,4.9465-2.2845.2531-4.582.3984-6.875.2654-.449-.0981-.894-.2112-1.3345-.3428-.1377-.0773-.2695-.1667-.4048-.2484-.0887-.0875-.1699-.1837-.2566-.2736-.1758-.287-.3433-.5791-.502-.8762-.2761-.8475-.4987-1.7097-.6764-2.5836-.1622-2.0757-.1268-4.156.0708-6.2289.7682-4.4016,2.1071-8.7292,3.741-12.8893,1.7013-3.8665,3.7014-7.584,5.9943-11.1263,14.5183-14.0289,29.0129-28.1726,41.4747-44.1051,5.1476-6.5812,9.9652-13.451,14.239-20.6171,3.8394.1027,7.6779.2401,11.5135.4371,2.9763.1528,6.4177-1.4471,8.4854-3.5148,2.0813-2.0813,3.6486-5.496,3.5146-8.4852-.1389-3.1035-1.1584-6.3223-3.5146-8.4853-2.415-2.217-5.1833-3.3452-8.4854-3.5147-.0562-.0029-.1122-.0046-.1683-.0075,2.1344-5.8499,3.8357-11.8737,4.9767-18.0912,1.129-6.1531-1.6851-13.2362-8.3813-14.7615-5.8809-1.3394-13.5499,1.7792-14.7615,8.3813-.7999,4.3595-1.8361,8.6623-3.1664,12.8911-.5988,1.9031-1.2512,3.7892-1.953,5.6568-.3628.9652-.7424,1.9251-1.1345,2.8793-.0757.1348-.7222,1.5831-1.1104,2.4483-8.3416.0358-16.6821.2965-25.0105.7897-4.8589.2878-9.7126.6557-14.5601,1.096-3.2444.2947-6.1113,1.1407-8.4854,3.5147-2.0813,2.0813-3.6486,5.4961-3.5146,8.4853.1389,3.1035,1.1584,6.3223,3.5146,8.4853,2.2231,2.0407,5.3555,3.799,8.4854,3.5147,8.356-.759,16.7317-1.2907,25.1157-1.5941-.8754,1.2142-1.7588,2.4228-2.6626,3.616-.3179.4014-1.4515,1.8651-1.4255,1.8325-.5107.6405-1.0248,1.2785-1.5421,1.9137-3.1193,3.8301-6.3589,7.5613-9.6796,11.2179-6.1064,6.7242-12.4899,13.1911-18.9673,19.5566-2.5287,2.485-5.0714,4.9559-7.6111,7.4299-1.4883.9318-2.7092,2.1309-3.6738,3.5862-11.6328,11.2927-23.3498,22.5009-35.0083,33.765-2.33,2.2512-4.66,4.5023-6.9899,6.7535.7662-3.4135,1.5539-6.8222,2.3843-10.2206,5.7408-23.4921,13.0382-46.5803,21.7563-69.1357,2.1508-5.5645-1.9302-12.0391-6.948-14.1566-5.4234-2.2887-11.9698-.2985-14.985,4.9099-12.6195,21.7984-26.2412,40.5573-42.8098,58.7831-8.4387,9.2827-17.3693,18.1198-26.7497,26.45-2.2892,2.0329-4.5908,4.0582-6.9602,5.9977-1.3217,1.0818-.329.3403-1.749,1.3027-1.4462.9801-2.9261,1.8622-4.4348,2.738-.1086.063-1.0427.4889-1.1472.5616-.4122.1423-.8293.2733-1.2457.3928-.3625.104-.7308.2032-1.101.2932-.198.0017-.9996.0887-1.2073.079-.3588-.0167-.5854-.0175-.7357-.0107-.0967-.0439-.2404-.1001-.4564-.1739-.141-.0482-.2609-.0887-.3669-.1244-.3314-.1853-.6631-.3699-.9973-.5522-.0261-.0142-.0446-.0244-.0692-.0378-.2485-.2303-.4997-.457-.7396-.6981-.1232-.1238-.4849-.5068-.7346-.7638-.0308-.0417-.0593-.0809-.0745-.1055-.5628-.9186-1.0118-2.0754-1.6644-2.9205-.2064-.5872-.4127-1.1735-.5884-1.7729-.3302-1.1263-.5119-2.2728-.7963-3.4076.509,2.0304.0442.3353-.0051-.7755-.0511-1.1512-.0207-2.295.0488-3.444.0193-.319.0225-.4539.0181-.4974.1378-.9202.3348-1.843.5349-2.7458,1.2728-5.7413,3.316-11.2269,5.408-16.6992,1.6016-1.1738,3.2046-2.3456,4.8059-3.5198,23.6807-17.3637,47.8677-35.203,65.79-58.7833,15.1986-19.9967,25.666-53.7725,2.7473-72.6659-20.2972-16.7324-51.6375-10.1927-67.5424,9.4614-18.7321,23.1476-18.4958,52.8384-20.3246,81.0543-.5056,7.7991-1.0292,13.3734-2.6766,20.5996-.6957,3.0515-1.5983,6.0245-2.6022,8.963-8.9204,6.5822-17.8713,13.1239-26.8588,19.6082,3.9337-6.5951,6.7144-13.8162,7.7714-21.6823,2.9551-21.9926-7.8727-45.6868-30.5442-51.8475-7.7883-2.1164-15.4721-1.85-22.8843.0005,16.0303-28.921,30.017-58.9512,41.9487-89.8394,1.821-4.7143-1.175-11.2589-5.5147-13.5517-4.711-2.489-10.685-2.0264-14.5419,1.8763-19.4122,19.6426-33.2112,43.7233-44.5892,68.6868-11.7928,25.8737-19.8869,49.3593-32.509,74.2569-4.6452,9.1628-9.8363,18.0604-15.6105,26.5606-.0054-.0099-.0107-.0198-.0161-.0297,2.7596-5.0931,5.2361-10.357,7.4211-15.7854,3.5588-8.8415,7.3395-19.0005,4.7704-28.5764-2.4509-9.1356-10.3727-15.5617-19.1984-18.113-18.8042-5.436-33.1129,7.228-48.4902,15.5739-.1557.0845-.2823.1533-.3965.2153-.2813.1072-.5632.2131-.8475.3126,3.709-9.381,6.8754-18.9531,10.4163-28.4093,3.9593-10.5735,9.8856-22.4644,17.2341-30.9333,8.8257-10.1713,19.3962-18.6305,29.8732-27.0156,4.6525-3.7236,4.2425-11.4793.9382-15.7562-3.8856-5.0293-9.9407-5.6021-15.4801-3.0907-28.5229,12.9312-52.712,36.0446-67.2706,63.7519-7.2479,13.7939-16.0884,32.6982-10.1476,48.4144.6442,1.7043,1.4065,3.2672,2.2595,4.712-9.0408,15.5237-19.5826,28.4181-31.4893,41.6301-.1014-2.2849-.1743-4.5706-.2314-6.8536-.2643-10.56-12.8483-15.6119-20.4853-8.4853-11.498,10.7297-14.1553,27.9625-9.1964,42.5045.1226.3594.2667.7059.3961,1.0613-.0961.027-.1921.0532-.2882.0811-.0718.0208-.131.0386-.1877.0557-.2723-.1536-1.3928-.4375-1.6788-.4266-.1815-.1151-.3625-.2275-.4464-.2811-.1008-.0938-.2061-.1937-.3076-.2949-.272-.2715-1.4609-1.5925-1.4949-1.5455-.5901-.814-1.1304-1.6761-1.6407-2.5356-1.152-1.9405-2.7739-5.2275-3.3013-6.4909-1.8925-4.5338-3.7335-11.3893-4.7312-17.0732-.1117-.636-.2113-1.2739-.3148-1.9114-.0369-.2271-.0623-.3776-.0816-.4874-.0069-.0565-.0124-.1025-.0208-.17-.027-.218-.0477-.4368-.0732-.655,3.3151-16.8121,3.7428-34.1151,1.515-51.2618.0005-.0046.0009-.0091.0014-.0137-.001.0001-.0021.0003-.0032.0004-.1383-1.0638-.2668-2.1281-.4255-3.1905-.8781-5.879-7.8871-9.305-13.1664-8.5956-6.2868.8447-9.7706,5.7546-10.405,11.7856-1.7372,16.5165-3.3141,33.5593-1.7295,50.2173-.8542,3.6445-1.8444,7.2572-2.9843,10.8227-1.5405,4.819-3.4266,9.7114-5.0366,13.1957-2.1287,4.6068-4.4534,9.1746-7.2256,13.4313-.6476.9944-1.3257,1.9658-2.0181,2.9293-.0541.0753-.2392.3055-.4133.5203-1.4836,1.7891-3.0519,3.5067-4.7505,5.0948-.6628.6197-1.3489,1.2311-2.0562,1.8087-.1764.0722-1.7888,1.1774-1.8711,1.2277-.6344.388-1.3023.7145-1.9358,1.1007-.2878.1366-.5038.2406-.6658.3203-.499.1774-.9977.3559-1.5074.5011-.3447.0975-2.1667.3387-2.0854.3892-.5587.0156-1.1191.0137-1.6801-.0071.8212-.0208-1.3054-.4249-2.5352-.7006-.3016-.1136-.6263-.2465-.8324-.3636-.4077-.2317-1.3409-.9561-1.4077-.9736-.2194-.2022-.4392-.4035-.6496-.6183-.2628-.2688-.509-.5525-.7576-.8342-.7004-1.1669-1.3633-2.3153-2.0121-3.515-.0236-.0437-.0385-.0685-.0601-.1078-.021-.0728-.0367-.1314-.0632-.2191-.2581-.8516-.5731-1.6835-.8195-2.54-.5112-1.7759-.8415-3.5743-1.2087-5.3819-.0096-.0474-.0191-.1029-.0284-.1612.0157.1586.0328.3328.0527.5419-.0178-.1865-.0367-.3726-.0553-.5589-.0893-.5703-.1531-1.4892-.0389-.3922-.0963-.959-.1932-1.9173-.2545-2.8808-.2278-3.5773-.1961-7.1696.0231-10.7465.1183-1.9315.3235-3.8506.5191-5.7751.0096-.0951.0153-.1575.0231-.2372.017-.0961.0326-.1819.0535-.3043.213-1.244.4058-2.4907.629-3.7331,1.3724-7.6389,3.1444-15.2281,5.6248-22.5881.7065-2.0964,1.4759-4.1727,2.3132-6.2206.0451-.0953.0948-.2005.1519-.321.5639-1.193,1.1142-2.3895,1.717-3.5638.6356-1.238,1.3185-2.4509,2.0259-3.6495,9.6166-4.1755,18.4099-10.1679,25.6185-17.8334,3.5257-3.7491,4.803-10.0024,1.8763-14.5419-3.1491-4.8845-8.0186-6.3055-13.5517-5.5148-12.3261,1.7615-21.8589,8.7892-29.1091,17.9916-2.5545.7732-5.1557,1.4005-7.7836,1.8672-.1555.0276-2.4808.3081-2.1895.299-1.257.1166-2.5142.2178-3.7769.2673-2.3535.0922-4.7098.0457-7.0592-.1183-.3893-6.2924-2.857-12.2011-5.7545-18.0157-.7308-1.4666-1.4898-2.9191-2.203-4.3945-.2527-.5229-.4775-1.0669-.7451-1.5826-.0976-.2587-.1996-.5157-.2884-.7776-.1758-.5742-.3423-1.1621-.5398-1.7282-.0617-.2139-.1056-.4323-.1583-.6485.0129-.2894.0131-.5997-.0063-.8876.0432-.1763.0351-.2119-.0145-.1332-.0053-.0571-.0112-.1132-.0182-.1675,2.7051-8.0714-1.5944-16.1521-10.8562-16.7326-12.7708-.8005-23.0472,8.9458-26.9122,20.4205-4.0239,11.9465.3267,24.8763,9.1663,33.4669,1.3907,1.3516,2.8624,2.597,4.3922,3.7584-1.0799,1.0599-2.1591,2.1205-3.2387,3.1808-10.5829,10.3939-21.0458,20.9294-31.7802,31.1669-2.2621,2.1574-4.561,4.2769-6.923,6.3248-1.1078.9604-2.2335,1.8978-3.3646,2.8303-.3032.25-.5266.434-.6969.5742-.7662.5872-1.5478,1.1566-2.3342,1.7161-2.4966,1.7761-5.0797,3.4365-7.7712,4.9029-1.2299.67-2.4821,1.2963-3.7545,1.8812-.0484.0223-.0795.037-.1209.0563-.0792.0276-.1758.0621-.293.1047-.9205.3347-1.8401.6681-2.7768.9556-1.3019.3997-2.6215.7375-3.9556,1.0104-.1713.035-.9833.1577-1.4286.2324-.2726.0219-.5434.0446-.577.0458-1.5832.0581-3.1411.0099-4.7229-.0035-.2078-.0018-.6284-.0591-.9287-.1038-.3062-.0565-.6132-.108-.9177-.1746-1.1337-.2479-2.2557-.5566-3.356-.9257-.2639-.0885-.5242-.1877-.7845-.2868-.9089-.5624-1.9348-.9827-2.8516-1.5427-.4141-.2528-1.7679-1.2585-2.1134-1.4726-.5368-.4878-1.2514-1.1311-1.3945-1.2693-.7083-.684-1.3888-1.3964-2.0407-2.1345-.2306-.2611-.4517-.5324-.6746-.8018-.6395-1.0137-1.3673-1.975-1.9851-3.0068-.5244-.8759-1.0173-1.7701-1.483-2.6784-.2686-.5237-.5194-1.0555-.7772-1.5844-.0715-.1465-.2192-.5024-.3396-.7943-.2125-.5924-.5214-1.4461-.6165-1.726-.4378-1.2885-.8247-2.5933-1.1687-3.9099-.2698-1.0328-.5115-2.0729-.7241-3.119-.1351-.6647-.4809-3.1589-.4291-2.4715-.1942-1.9374-.3326-3.8746-.3535-5.8256-.025-2.3228.1437-4.6114.3142-6.9241-.0227.1211-.0467.2485-.0745.3939.0316-.1651.0561-.3318.0836-.4979.0298-.309.1152-.7595.1562-.931.0219-.1321.0422-.2646.0665-.3962.223-1.209.4846-2.4116.7864-3.6035.5334-2.1063,1.2806-4.1074,1.98-6.1527.2334-.4813.4504-.9744.6877-1.4514.7722-1.5523,1.6069-3.0729,2.5039-4.5566.7005-1.1588,1.4694-2.2677,2.2128-3.3983.0789-.1198.3757-.5143.5583-.7599.3725-.4553.7483-.91,1.1357-1.349.8862-1.0041,1.8148-1.9701,2.7836-2.8946.4138-.3948.8409-.7731,1.2601-1.162.285-.2644.4744-.4482.6069-.5831.1432-.0925.3107-.2029.537-.3572,1.2516-.853,2.5293-1.6603,3.8701-2.3679.4683-.2471.9487-.4872,1.4324-.7139.1238-.0247.8588-.2845,1.3159-.4131.4915-.1383.9787-.2878,1.475-.4098.0129-.0031.9828-.1839,1.5411-.3009.3397-.0321.705-.0673.8431-.074.8552-.0419,1.7115-.0517,2.5674-.0205.5084.0186,1.0131.0607,1.5187.1022.1036.025.2211.0542.3648.0921.6565.1732,1.3195.3043,1.9721.493.1557.045.936.3134,1.4424.4792.3194.146.6846.3134.8102.3862.6396.3705,1.2783.798,1.9249,1.1598.4945.5005,1.0317.9903,1.5441,1.4641.0421.0389.0745.0693.1125.1046.295.4949.5621,1.0425.8753,1.5229.1161.5161.2681,1.0859.4219,1.6036-.0262.6188.0256,1.3009.0544,1.8992.001.0209,0,.0429.0003.0643.0378-.1567.0803-.3278.1335-.5328-.0493.1896-.0871.3852-.1332.5777-.0069.567-.249,1.2315-.1586.688-.0717.3199-.1516.6384-.2201.9543-.0281.1295-.078.254-.1216.38-.0354.1611-.0956.3694-.183.5809-.037.1127-.0825.2238-.1054.3391.0142-.0717.0267-.1295.04-.1938-.0341.0715-.0702.1422-.1106.2094-.282.4692-.6653.9634-.8831,1.4639-.0234.0211-.0398.0346-.0648.0574-.258.2361-.5317.4902-.7983.7454-.0513.0335-.0842.0554-.1465.0957-.0632.041-.1124.0732-.1664.1083-.6315.1834-1.2621.3522-1.9188.479-6.1758,1.1926-10.2689,8.9284-8.3813,14.7614,2.1303,6.5829,8.1446,9.6591,14.7614,8.3813,14.5852-2.8165,23.7781-18.6302,22.2909-32.7924-1.8071-17.2086-16.3401-27.9608-32.8298-29.5295-31.3906-2.9863-52.5258,29.9678-54.5359,57.669-1.7933,24.7127,10.0592,51.6923,34.3924,60.5927,14.7074,5.3796,31.2017,1.3102,44.2438-6.4151,14.0264-8.3083,25.4268-20.4149,36.9608-31.7428,7.1077-6.9807,14.2153-13.9614,21.323-20.9421,2.4003-2.3574,4.9963-4.7319,7.4395-7.2472,5.5557,1.084,11.2869,1.5005,16.9649,1.3064-5.495,15.3469-8.6755,32.5839-8.0667,48.6097.3639,9.5784,2.0807,19.6263,7.0404,27.9842,5.6998,9.6049,15.1071,15.3493,26.129,16.5416,12.1432,1.3136,23.8629-5.4789,32.0542-13.902,6.3611-6.5411,11.1132-14.2393,15.0875-22.3533,3.4957,6.191,8.0671,11.6664,14.1861,14.7959,9.151,4.6801,18.3224,3.4266,26.5078-.7949,2.8405,2.6401,5.9885,4.9485,9.4207,6.8634,3.6005,4.0607,7.9351,7.5783,13.1867,10.3331,25.9868,13.6313,59.8406,5.4351,83.6433-9.1094,8.2658-5.0508,15.8966-11.0179,22.96-17.6227,6.8556,6.9656,15.1339,12.1978,24.3759,15.9124,26.1906,10.5265,54.7911,1.2971,77.9626-12.3345,12.1317-7.137,23.399-15.629,34.7394-23.9343,1.2169-.8912,2.4337-1.7827,3.6508-2.6738-.0726,4.9809.6548,9.9645,2.5368,14.8596,5.5849,14.5263,18.3453,23.8808,34.253,21.3818,14.6133-2.2957,26.6562-15.2394,36.9458-24.9457,7.5353-7.1081,14.7582-14.5609,21.6562-22.308-1.194,4.916-2.3303,9.8461-3.3896,14.793-1.3339,6.2295-3.111,12.8055-1.6006,19.1722,1.573,6.6307,6.6116,12.1075,13.3227,13.7081,7.6145,1.816,14.7222-1.6957,20.4978-6.3525,6.712-5.4117,12.8599-11.7384,19.0011-17.936.3116,2.6996.7809,5.405,1.7933,7.9274,1.5599,3.8866,3.2919,7.1982,6.2733,10.2416,3.0624,3.1263,6.9932,5.3321,11.1609,6.5964,7.2401,2.1963,15.1538,1.087,22.4456-.1572,5.2168-.8902,10.3419-2.3048,15.2876-4.1864,11.7323-4.4635,22.2952-10.7619,31.7239-19.0715,9.4641-8.3408,17.4674-18.8605,22.6819-30.3618.877-1.3774,1.3516-2.8646,1.4241-4.4616.3572-1.595.2858-3.1901-.2144-4.7851-.7665-2.7835-2.9187-5.8-5.5146-7.1716ZM990.5798,97.2221c-.0083.0643-.012.092-.0118.0898-.0002.0023.0035-.0255.0118-.0898ZM989.367,112.2434c.1761-3.2276.375-6.4556.6591-9.6757.1218-1.381.2594-2.7604.4154-4.138.0555-.4906.1142-.9808.1743-1.4708.0268-.1928.0612-.4329.0987-.6711.8969-5.7004,2.0957-11.3475,3.9076-16.8329.4318-1.3071.9012-2.5991,1.3937-3.8846.1432-.3738.2222-.5908.2625-.71.0499-.0828.1569-.2853.3746-.7298,1.2813-2.6168,2.6464-5.1707,4.2598-7.6012.2466-.3714,1.8064-2.4244,1.5659-2.1825.7631-.9082,1.5487-1.7961,2.3737-2.6494.8657-.8954,1.7767-1.7253,2.6954-2.5646.032-.0293.1174-.0989.2151-.1779.3124-.2188.7766-.5497.8817-.6168.9747-.6217,1.9427-1.2416,2.957-1.7979.3436-.1884,1.4803-.7493,2.062-1.0452.5086-.1772,1.9405-.73,2.3661-.8655,1.2589-.4009,2.5389-.7429,3.8302-1.022.7358-.1591,1.8399-.3051,1.6971-.3062.8016-.0706,1.6029-.1321,2.4098-.1542,1.1281-.031,2.2578-.0158,3.3841.0571.3856.025.7697.0684,1.1542.1061.1035.0274.2236.0591.3798.1006,1.0632.2824,2.1247.5397,3.1833.8447.3215.0926.6348.2094.9488.3241.0262.0143.0458.0249.0736.0401.8169.4458,1.6167.921,2.4308,1.3698.1428.0787.2578.1415.3607.1975.3074.2609.6193.5168.9128.7916.3265.3056,1.3409,1.4095,1.6912,1.759.1533.2086.3104.4216.3381.4664.3871.6241.7825,1.2371,1.1346,1.8816.2266.4145.4335.8383.6386,1.2633.0186.0774.0428.1711.0779.2955.3633,1.2858.6747,2.5543.9745,3.8532.0216.4423.0643.8859.0815,1.3278.0499,1.275-.0265,2.5295-.0527,3.8013-.0037.181-.0426.6252-.0653.9155-.0498.2835-.0919.5684-.1445.8502-.2786,1.4918-.6312,2.9673-1.0449,4.4272-.3687,1.301-.7844,2.5884-1.2444,3.8602-.1384.3826-.835,2.0517-.7945,2.0082-1.1583,2.5317-2.4578,4.9969-3.886,7.3867-1.4131,2.3645-2.9523,4.6424-4.5805,6.8633-.0327.0445-.0477.0652-.0753.1029-.4528.5685-.9149,1.1312-1.3785,1.6896-1.145,1.3792-2.3137,2.7391-3.5016,4.0815-4.1516,4.692-8.5496,9.1642-13.1168,13.4516-7.7494,7.2749-16.1078,14.1263-24.0562,20.2351.7938-8.3928,1.1174-16.8358,1.5768-25.2552ZM467.2525,132.422c.7987.7484.3756.4045,0,0h0ZM458.7656,128.0393c-.388-.0586-.4312-.0983,0,0h0ZM535.4758,135.1436c-.0547.106-.1127.2109-.174.3181.0316-.1686.0921-.4004.1969-.7114.0006.0089.0007.0182.0013.0272-.0807.2835-.1101.4901-.0242.3661ZM549.5115,105.2429c-.0922.2014-.2185.4966-.3869.9075.1556-.3599.2769-.7209.4041-1.0818-.0059.0596-.0109.1083-.0172.1743ZM663.5061,207.6463c.3768.3268.2615.2363,0,0h0ZM804.7874,136.6521c-.3702,1.9529-1.0432,3.8782-1.6503,5.7607-.6031,1.8701-1.2503,3.7267-1.942,5.566-.2767.7358-.5712,1.4643-.8496,2.1993-.1292.341-.2164.5771-.2855.7675-.0839.1805-.1847.4-.3263.7148-1.613,3.5862-3.3345,7.1143-5.2435,10.5533-1.7169,3.093-3.5612,6.1146-5.5218,9.059-1.0893,1.6358-2.2164,3.2474-3.3792,4.8318-.3421.4662-.6904.9289-1.0391,1.391-.1799.2128-1.2435,1.5572-1.4197,1.7724-4.9806,6.0807-10.5046,11.7224-16.4951,16.8119-3.2207,2.7363-3.4145,2.8961-6.8884,5.3383-3.3759,2.3734-6.8677,4.5822-10.4623,6.6091-1.6385.924-3.2991,1.8069-4.9849,2.6415-.9506.4706-1.9096.923-2.8751,1.3621-.2302.1047-1.3826.5839-1.6837.715-3.8092,1.5027-7.7255,2.7592-11.7149,3.6844-.8223.1907-1.6485.3699-2.4769.5333-.8254.1631-1.6535.3115-2.4842.4451.9095-.0991.9361-.1008.0799-.005-2.2633.2671-4.5511.4007-6.8303.3984-1.7982-.0018-3.6113-.0686-5.4024-.2634.1473-.0197-2.3277-.4385-2.3894-.452-1.1984-.2618-2.3884-.5683-3.5616-.9265-.2954-.0902-.5842-.1956-.8761-.2925-.642-1.0121-1.2806-2.024-1.8494-3.0879-.3204-.5994-.6274-1.2073-.9232-1.8191-.0612-.1266-.323-.7421-.5325-1.2266,4.8466-5.1887,9.5297-10.5587,14.1901-15.8244,8.2933-9.3703,16.242-19.089,23.4566-29.3192,3.0611-4.3406,5.9581-8.8001,8.6649-13.3706,8.0004,1.1633,16.7673-.4199,24.4413-4.0575,7.0801-3.3561,13.1871-8.394,20.1443-11.9716-.2025.1041,1.3087-.5847,1.9559-.9025.7036-.2279,2.2372-.7697,2.016-.7056.6046-.1751,1.2159-.2912,1.8203-.4587.0259-.0071.0413-.0126.0659-.0196.0198.006.0299.0118.0524.0179.7057.1893,4.3409.2871,2.6532-.074.5914.11,1.1791.2333,1.7617.3887.8766.2337,3.4704,1.6862,1.0543.2526.4128.2449.8528.4953,1.2817.7292-.1203-.0552-.0848-.0218.2935.2022.0363.0215.0671.0455.1003.0684.004.0117.0077.023.0117.0347.0522.2803.1125.586.1633.799-.0717.3788-.1463,1.1199-.1198,1.129ZM804.8327,134.9303c-.0149-.0619-.0311-.1296-.0491-.2059.8504.6293.6639,1.6592.0491.2059ZM905.3793,128.7356c1.0331.3217.4829.1766,0,0h0ZM900.713,127.4673c-.3015-.0671-.4473-.108,0,0h0ZM829.5536,205.7476c-.2469-.2105-.4952-.4189-.7435-.6276.0917.0741.3152.2614.7455.629-.0007-.0005-.0013-.0009-.002-.0015ZM916.7171,150.4765c-.0243.877-.1024,1.7469-.1519,2.6221-.0085.1512-.0131.2643-.0178.3805-.041.1517-.087.3323-.1445.577-.4099,1.7461-.8067,3.4661-1.3786,5.1719-.0206.0614-.9058,2.324-.817,2.2072-.2289.4941-.4657.9856-.7078,1.4696-1.0558,2.1111-2.2587,4.1484-3.57,6.1104-.5364.8026-1.0937,1.5959-1.6713,2.3716-.1512.1664-.9222,1.1163-1.1165,1.3447-1.4218,1.6721-2.9156,3.2816-4.4714,4.8298-1.4214,1.4146-2.8907,2.7808-4.399,4.1023-.9061.7939-1.8268,1.5709-2.7594,2.3334-.2095.1713-1.6317,1.2704-1.826,1.4318-3.6212,2.7006-7.3806,5.2254-11.2701,7.522-3.6478,2.1538-8.7443,4.7839-11.3383,5.7925-9.7498,3.791-16.0966,4.8159-26.045,4.4322-.2037-.0079-.6943-.0729-1.03-.1184-1.1426-.2038-2.2797-.4328-3.4045-.7238-.6949-.1797-1.3873-.375-2.0735-.5864-.3588-.1106-3.1854-1.1684-2.8952-.9931-1.7335-.7822-3.4218-1.6929-5.0385-2.6841-.7787-.4774-1.5285-.9911-2.2825-1.5029,4.9513-6.4323,9.5357-13.1356,13.7546-19.9805,4.6003-7.4639,8.7112-15.1813,12.5288-23.0505,1.4183-.5738,2.7515-1.4177,3.9085-2.5472,6.8141-6.6517,12.4274-11.5587,19.7407-16.1431,1.7351-1.0876,3.5068-2.1185,5.3206-3.0695,1.0671-.5594,2.1497-1.0817,3.2404-1.5933.3209-.1505.5413-.2587.7177-.3479.1884-.0521.4277-.1221.7751-.2308,1.8253-.5712,3.6134-1.197,5.4842-1.6205-.0615.0139,1.0323-.1863,1.6994-.3199.6937-.0334,2.4949-.1836,2.7853-.1863.994-.0092,1.9841.0377,2.9741.1185.1028.0255.2132.0528.3398.0844,1.0809.2694,2.1381.5466,3.2042.8715.1694.0516.3103.095.4386.1346.9688.457,1.9155.972,2.8242,1.5378.4001.2491,2.8218,2.2997.8636.5331.5024.4533,1.0065.8919,1.4894,1.3685.337.3326,2.0743,2.5457,1.8608,2.1315.761,1.1845,1.4303,2.4044,2.1406,3.6301.1077.1859.1954.3311.271.4518.0366.127.0804.2731.137.4515.2086.6577.4506,1.3002.6515,1.9617.3966,1.306.6899,2.6338.9502,3.9702.0051.1963.2349,1.7792.2528,2.0769.0736,1.2249.09,2.4509.0559,3.6772ZM1062.9338,214.4275c-.0933-.0184-.1017-.5135-.079-1.1013.1699.5873.2778,1.1404.079,1.1013Z"/><path class="cls-2" d="M404.6938,45.9829c2.5856-1.2573,4.7745-4.4838,5.5148-7.1716.791-2.8725.4338-6.6974-1.2097-9.2467-1.6269-2.5234-4.0405-4.7418-7.0358-5.4745.5666-2.6855-.1797-6.0781-1.4717-8.286-1.4567-2.4892-4.3109-4.8632-7.1716-5.5147-3.0718-.6997-6.52-.5483-9.2467,1.2097-2.7463,1.7706-4.3951,4.0973-5.5147,7.1716-1.4854,4.0787-2.6947,8.2089-3.7073,12.3839-3.5454.7966-7.1274,1.4366-10.7246,1.9565-17.7795,2.2062-35.7545,1.9307-53.6332,2.4566-9.0255.2655-18.0623.7108-27.0249,1.8498-9.3645,1.1901-18.6509,2.78-27.5695,5.9623-9.5895,3.4216-18.5278,8.0392-26.1652,14.8466-7.3469,6.5483-13.1099,15.793-14.8696,25.5484-.5336,2.9583-.9423,5.999-.9645,9.0132-.0223,3.0266.4036,6.0287.8535,9.0153.7726,5.1297,2.6292,9.9142,4.7305,14.6328,1.8104,4.0654,4.1204,7.9004,6.7695,11.4727,3.2263,4.3505,6.6602,8.4971,10.618,12.202,14.8383,13.8897,33.8508,21.7745,50.5004,33.0714,1.7369,1.1785,3.439,2.4061,5.1147,3.6697,2.2592,1.8027,4.4411,3.7037,6.3377,5.8818.1559.2321.3018.4697.449.7067-1.1359.3813-2.2983.6973-3.4719.9341-2.7872.2418-5.6099.2185-8.3968.1786-4.7681-.0681-9.5341-.293-14.2943-.5677-10.2988-.5944-20.5862-1.4379-30.8516-2.4557-3.3926-.3364-6.7846-.6972-10.1682-1.1201-.0973-.0289-.1945-.0461-.2917-.0719-.1817-.0459-.3623-.0978-.5443-.1341-.262-.0533-.5239-.0871-.7858-.1174-.1379-.0165-.2752-.0358-.4124-.0461-.2096-.0145-.4193-.0154-.6288-.0151-.1281-.0004-.2589-.0149-.3856-.0092-.0888.004-.1751.018-.2635.0237-.091.0068-.182.0151-.273.0247-.5226.0445-1.0375.1158-1.5424.2192-1.4126.1392-2.7419.5839-3.9777,1.3707-2.4892,1.4567-4.8631,4.3108-5.5147,7.1716-.0234.1027-.0377.2086-.0591.3121-.2304.916-.3673,1.8745-.3696,2.878-.0189,8.4023,5.9006,15.4803,11.2564,21.3256,3.3905,3.7004,6.9993,7.1899,10.5989,10.6877-1.6318.5925-3.1468,1.5046-4.3739,2.7318-2.0813,2.0813-3.6486,5.4961-3.5147,8.4853.139,3.1035,1.1584,6.3223,3.5147,8.4853,2.3199,2.1297,5.2582,3.5812,8.4853,3.5147,3.8833-.0801,7.7646-.423,11.6306-.8941,1.4686,2.4642,4.2924,4.8015,7.127,5.447,3.0718.6997,6.52.5483,9.2467-1.2097,2.6337-1.6981,4.6603-4.0956,5.5147-7.1716.0682-.2457.1058-.488.1624-.7324,3.069-.6304,6.1312-1.2943,9.1833-1.9982,15.2734-3.5224,30.3984-7.7846,45.2688-12.7399,6.1086-2.0356,12.1846-4.1908,18.1497-6.6182,7.8621-3.1994,15.5421-6.735,22.4694-11.6965,7.798-5.5851,15.2578-12.3715,19.6172-21.0793,2.6365-5.2662,4.0626-10.3685,4.5952-16.2158.2296-2.5202.0089-4.9693-.3272-7.4706-.3757-2.7962-.8741-5.4852-1.8804-8.131-2.3621-6.2111-5.5709-11.5114-9.9767-16.5043-3.5239-3.9935-7.8707-7.4457-12.4366-10.1675-4.6904-2.796-9.9627-4.9118-15.2866-6.1312-5.9606-1.3652-12.1104-1.8873-18.1904-2.4372-2.0529-.1857-4.1041-.3895-6.1509-.6329-3.4583-.5495-6.8761-1.3324-10.163-2.54-1.4379-.6853-2.8199-1.4681-4.1372-2.3629-.6014-.5309-1.1783-1.0853-1.7205-1.6768-.4077-.6224-.7858-1.2618-1.1287-1.9227-.2301-.6866-.4244-1.3829-.5829-2.0892-.0178-.4258-.02-.8516-.0079-1.2773.0567-.2306.1273-.4587.1946-.6866.0413-.0718.0936-.1379.1362-.209.1519-.1555.3168-.2997.4752-.449.5453-.3428,1.1042-.6618,1.6791-.954,2.3969-.859,4.8754-1.457,7.3727-1.9633,3.2115-.6511,6.4444-1.1866,9.6872-1.655,14.3147-1.7693,28.8049-1.7737,43.1197-.0025,1.1318.1635,2.2645.3207,3.3934.5048,1.595.5001,3.1901.5715,4.7852.2143,1.597-.0724,3.0842-.5471,4.4615-1.424,1.6906-.9893,3.3141-2.6284,4.3949-4.4713.8807-.7817,1.6374-1.6971,2.1974-2.7571,1.5574-2.9476,1.9163-5.9654,1.2097-9.2467-.5646-2.6218-1.024-5.2622-1.4179-7.914-1.0985-9.292-1.1277-18.6761-.103-27.9746,3.0929-1.166,6.1373-2.4703,9.124-3.9226ZM349.7283,77.6985c-5.6021.1721-11.1962.6156-16.7555,1.328-6.2171.7968-12.4759,1.6571-18.5758,3.1336-6.092,1.4746-11.9454,4.0591-16.5693,8.3703-5.0806,4.7369-7.6697,11.5579-7.8635,18.412-.0413,1.46.1617,2.8771.356,4.3231.204,1.5177.3921,3.0074.8157,4.4806.8121,2.824,2.0042,5.6506,3.5659,8.1448,3.3145,5.2938,8.1226,9.6673,13.6684,12.5395,5.5433,2.8708,11.4928,4.6693,17.6485,5.5829,6.287.933,12.6232,1.3245,18.9258,2.0815,3.5493.5485,7.04,1.3373,10.4084,2.5735,2.4108,1.1236,4.7037,2.4603,6.8689,4.0025,1.9354,1.6231,3.7198,3.4042,5.3425,5.3398,1.2198,1.7298,2.2942,3.5483,3.2097,5.4576.5177,1.4445.929,2.9186,1.2267,4.4238.0891,1.306.0861,2.6122-.0066,3.9181-.2755,1.376-.6582,2.7237-1.1284,4.0471-.8478,1.7517-1.8417,3.4215-2.96,5.0146-2.2735,2.7429-4.8464,5.2083-7.6144,7.4503-5.2433,3.8368-10.9641,6.9613-16.9138,9.5633-10.0618,4.145-20.4436,7.5493-30.8484,10.707-12.9711,3.9367-26.0952,7.4238-39.3531,10.2561-1.6322.3487-3.2671.6863-4.9044,1.0123-.4545-.5405-.9099-1.0742-1.3638-1.5933-3.5663-4.0792-7.4515-7.8633-11.3434-11.6368,9.0704.7602,18.157,1.4041,27.2531,1.7092,10.1146.3394,20.6459.4238,29.7192-4.8126,5.0897-2.9373,9.1259-7.7012,10.7056-13.4119,1.6918-6.116.322-12.5347-2.694-17.9872-2.1868-3.9534-5.369-7.5052-8.7922-10.4393-3.5752-3.0643-7.3454-5.9293-11.2175-8.6081-12.6146-8.7272-26.6109-15.2278-39.1932-24.0056-1.2173-.8492-2.4042-1.7398-3.5894-2.6329-4.0109-3.2706-7.6766-6.9414-10.932-10.9655-2.4116-3.2917-4.5344-6.7829-6.2595-10.4803-1.1158-2.8587-1.9674-5.8027-2.4988-8.8234-.1783-2.0828-.1869-4.1689-.0129-6.2518.3479-1.8469.8437-3.6558,1.4868-5.4216.8439-1.7522,1.8272-3.4255,2.9413-5.0197,1.7391-2.0693,3.674-3.9517,5.7648-5.6674,3.3651-2.4061,6.988-4.4176,10.7556-6.1254,7.9166-3.1837,16.243-5.1357,24.6724-6.3784,15.1053-1.8942,30.376-1.928,45.5742-2.2474,13.9487-.2931,27.9796-.8157,41.7867-2.9474-.3671,6.0877-.2969,12.1993.2526,18.2783.1221,1.3512.2661,2.702.4222,4.0517-7.3007-.6832-14.6321-.9714-21.9809-.7457Z"/><path class="cls-1" d="M638.7904,106.5636c3.0768,0,6.3091-1.3386,8.4853-3.5148,2.0813-2.0813,3.6486-5.496,3.5147-8.4852-.2912-6.5016-5.2726-12-12-12-3.0768,0-6.3091,1.3386-8.4853,3.5147-2.0813,2.0813-3.6486,5.496-3.5147,8.4853.2912,6.5016,5.2726,12,12,12Z"/></svg>