<?xml version="1.0" encoding="UTF-8"?>
<svg id="Layer_1" xmlns="http://www.w3.org/2000/svg" version="1.1" viewBox="0 0 721.4 159.8">
  <!-- Generator: Adobe Illustrator 29.3.1, SVG Export Plug-In . SVG Version: 2.1.0 Build 151)  -->
  <defs>
    <style>
      .st0 {
        stroke: #000;
        stroke-miterlimit: 10;
        stroke-width: 6px;
      }
    </style>
  </defs>
  <path class="st0" d="M37.8,67.2c-7.1-4.6-18.4-11.5-18.4-21.6s3.8-11.5,7.8-15.7c7.3-7.5,19.5-14.7,31-14.7s6.3.6,9.2,1.9c3.1,1.3,5.4,4.2,6.5,7.3,1,2.9,1,7.5,4.6,7.5s1-.2,1.7-.4c2.5-.6,3.4-2.7,3.4-5,0-3.8-2.1-8.4-3.6-10.5-4.6-6.7-12.4-9.4-20.5-9.4s-2.3,0-3.4.2c-8.6,1-16.8,3.1-24.3,7.8-5.2,3.1-9.8,6.7-13.6,11.5-2.3,2.7-4,5.9-5.4,9.2-1.5,3.4-2.1,6.7-2.1,9.8,0,8.6,4.8,16.1,12.2,22.2,14,11.9,31.4,18.9,46.1,30,6.9,5.2,16.8,13.6,16.8,23.3s0,1.5-.2,2.3c-1.3,7.5-6.7,13.6-13,17.6-8,5.2-17.2,7.3-26.6,7.3s-14.7-1.3-21.4-3.1c-3.8-1-7.3-2.5-10.5-4.8-2.1-1.7-3.6-4.4-6.3-4.4s-1.3.2-1.9.4c-2.1.8-2.7,2.1-2.7,3.4,0,4,7.8,9.4,10.1,10.7,9.2,4.6,21.4,6.9,32.3,6.9s5.4-.2,8-.4c7.8-.8,14.9-3.6,21.8-7.1,4.4-2.3,8.6-5.4,11.7-9.2,5-5.9,7.3-12.2,7.3-18.4s-3.4-15.1-9-21.6c-12.6-14.7-31.4-22.6-47.3-32.9h0Z"/>
  <path class="st0" d="M248.9,97.1c.6,0,1.3,0,2.1-.2,2.7-.8,5-6.3,5-10.5s-1-5.4-3.8-5.4-.8,0-1.5.2c-2.9.8-5.2,6.3-5.2,10.5s1,5.2,3.4,5.4h0Z"/>
  <path class="st0" d="M597.5,97.1c.6,0,1.3,0,2.1-.2,2.7-.8,5-6.3,5-10.5s-1-5.4-3.8-5.4-.8,0-1.5.2c-2.9.8-5.2,6.3-5.2,10.5s1,5.2,3.4,5.4Z"/>
  <path class="st0" d="M708.9,56.8c-6.3-.6-13.2-1-20.1-1s-4.4.2-6.7.2c1.9-5.2,3.6-10.5,4.8-15.7,1-3.8,2.1-9.6,2.1-15.3s-2.1-15.1-9.8-15.3h-.8c-1,0-1.9.2-2.9.4-10.9,2.3-17.8,14.9-21.8,24.3-3.4,7.5-5.9,15.5-8,23.7h-1.9c-9.4,0-20.1.8-29.3,2.5-2.3.4-3.8,2.3-3.8,4.4s.6,2.5,1.7,3.4c1,.8,2.5,1.3,4,1.3s2.7-.2,3.8-.4c5.4-.8,10.9-1,16.3-1.7,2.5-.4,4.8-.6,7.3-.8-1.9,8.6-3.1,17.6-4,26.2-.6,5.7-1.3,11.3-1.3,17s0,2.3.1,3.5c-2.6,1.5-4.7,5.1-6.6,7-6.3,6.3-13,12.4-20.9,16.3-2.1,1-4.8,2.7-7.5,2.7s-1.5-.2-2.1-.4c-2.9-1.3-4-4.8-4.4-7.8-.2-1.9-.4-3.8-.4-5.7,0-4.4.6-9,1.5-13.6,0-.4.2-.8.2-1.3,0-2.5-1.5-4.8-4-4.8h-1c-3.4.8-4.4,4.6-4.8,8.2-3.4,2.6-6,8.3-8,11.1-5.9,8.2-17.8,18.2-28.5,18.2s-10.3-2.5-14-9c-1.9-3.4-4.2-9-4.2-13.4s0-1.5.2-2.1c3.8-6.9,8.2-14,11.7-20.1,11.5-20.5,23-41.9,30.4-64.3,1.3-4.2,2.7-10.1,2.7-15.5,0-8.4-2.7-15.9-11.9-15.9h-.2c-1,0-2.1,0-3.4.2-11.5,2.1-18.6,13.8-23.5,23.5-10.5,21.2-13.8,46.3-14.9,69.8-.2,3.4-.2,6.9-.2,10.3s0,5.2.2,7.7c-1.2,1-2.3,2.4-3.3,3.4-3.4,3.6-7.3,6.3-11.7,8.6-8.4,4.2-17,5-25.6,5s-9.8-.2-14.9-.2c1.5-5.2,3.6-10.1,3.6-15.7,0-11.1-8-18.4-17.6-18.4s-4.2.4-6.5,1c-13.2,4.2-27,17.2-32.5,29.7-.6-1.9-.6-3.6-.6-5.2,0-12.2,12.2-21.2,19.3-30.6,11.1-14.9,20.3-31,23.9-49.4.8-4.2,1.5-8.6,1.5-13.2s-.2-6.9-1.3-10.1c-1.3-4.6-4.8-7.1-9.2-7.1s-4,.6-6.1,1.7c-7.8,4.4-13.2,13-17,20.9-11,22.9-17.8,52.6-19.5,79.5-1.2,1-2.3,2.4-3.3,3.4-3.4,3.6-7.3,6.3-11.7,8.6-8.4,4.2-17,5-25.6,5s-9.8-.2-14.9-.2c1.5-5.2,3.6-10.1,3.6-15.7,0-11.1-8-18.4-17.6-18.4s-4.2.4-6.5,1c-13.2,4.2-27,17.2-32.5,29.7-.6-1.9-.6-3.6-.6-5.2,0-12.2,12.2-21.2,19.3-30.6,11.1-14.9,20.3-31,23.9-49.4.8-4.2,1.5-8.6,1.5-13.2s-.2-6.9-1.3-10.1c-1.3-4.6-4.8-7.1-9.2-7.1s-4,.6-6.1,1.7c-7.8,4.4-13.2,13-17,20.9-10.9,22.7-17.6,51.8-19.4,78.5-2.6,1.6-4.6,5-6.6,7-6.3,6.3-13,12.4-20.9,16.3-2.1,1-4.8,2.7-7.5,2.7s-1.5-.2-2.1-.4c-2.9-1.3-4-4.8-4.4-7.8-.2-1.9-.4-3.8-.4-5.7,0-4.4.6-9,1.5-13.6,0-.4.2-.8.2-1.3,0-2.5-1.5-4.8-4-4.8h-1c-3.5.9-4.4,4.8-4.9,8.5-1.8,1.2-3.6,2.9-4.6,3.9-8,8.2-15.5,14.2-25.3,19.7-2.1,1.3-5.7,3.1-8.6,3.1s-2.3-.2-3.1-1c-1.9-1.7-2.7-4.6-2.7-8,0-5.7,2.1-12.6,3.6-15.9.8-1.9,2.3-4.4,2.3-6.7s-.6-2.5-2.1-3.4c-.8-.4-1.5-.6-2.1-.6-2.9,0-5.4,3.1-7.8,4.6-4.2,2.5-9,4-13.8,4s-2.7,0-4-.2v-1c4.6-2.3,8.2-8.6,8.2-14s0-1.3-.2-1.9c-.8-4.4-4.2-6.7-8-6.7s-4,.6-5.9,1.7c-5,3.1-7.5,8.8-7.5,14.2s.6,5.3,1.7,7.6c-4.8,2.1-9.4,5.3-14,7.7-18.6,10.1-33.3,19.3-55.1,20.7-1.5.2-3.1-.4-4.6-.6-5-.4-16.4-8.3-17.1-17.3-.9-10.1,8.5-15.8,12.6-19.7,11.4-10.7,16.9-13.6,20.7-13.6s3.8.4,5.2,1.7c2.1,1.7,2.5,4.4,4.6,5.9.8.4,1.7.8,2.5.8,1.5,0,2.9-.8,3.8-2.3.4-.6.6-1.5.6-2.1,0-1.9-1-3.8-1.9-5.2-2.9-5-8.8-7.5-14.7-7.5h-.2c-.8,0-1.7-.2-2.5,0-13,1.9-34.7,21.7-38.3,34.5-.6,2.3-1.2,3.5-1,5.8,1,13.2,12,22.6,17.5,25.7,3.6,2.1,7.8,2.7,12.2,2.7s9-.8,13-1.9c17.2-4.2,28.1-8.8,43.4-17.4,6.1-3.4,12.6-6.3,18.2-10.1.5-.3.9-.6,1.2-1,0,0,.1,0,.2.1,2.9,1.7,6.1,2.5,9.2,2.5s8.8-1.3,13-2.7c-.8,3.8-1.3,7.8-1.3,11.5s0,5.4.8,8.2c2.1,7.3,6.7,10.1,12.2,10.5,10.3,0,27-10.5,35.4-18.9.9-1,2.2-2.3,3.6-3.7.6,9.7,4.2,20,15,20h.6c13.4-.4,26-11.9,34.8-21.2,0,6.5.4,12.8,1,18.6.6,2.1,2.3,3.1,4,3.1s4-1,5-2.7c1-1.7,1.7-3.8,2.7-5.4,3.4,7.5,10.5,10.7,18,10.7s11.9-1.9,16.5-4.4c3.4-1.9,6.9-6.5,10.5-7.3,5.4.4,11.3.8,16.5.8s2.3-.2,3.6-.2c10.9-.4,21.6-1.9,31.2-6.9,2.9-1.5,5.8-3.2,8.4-5.3,0,6.2.4,12.1,1,17.7.6,2.1,2.3,3.1,4,3.1s4-1,5-2.7c1-1.7,1.7-3.8,2.7-5.4,3.4,7.5,10.5,10.7,18,10.7s11.9-1.9,16.5-4.4c3.4-1.9,6.9-6.5,10.5-7.3,5.4.4,11.3.8,16.5.8s2.3-.2,3.6-.2c10.9-.4,21.6-1.9,31.2-6.9,3.5-1.8,6.9-4,9.9-6.6.2,1.4.5,2.6.8,3.7,4.4,11.5,11.9,22.2,24.7,22.2s4-.2,6.3-.8c12.8-3.1,22.4-11.2,30-21.4,1,9,4.8,17.8,14.8,17.8h.6c13.4-.4,26-11.9,34.8-21.2.4-.4,1.1-1.2,1.9-2.1,2.2,12,7.2,23.4,21.6,24.3h1c2.3,0,5-.4,7.3-1,11.7-3.4,22.2-10.7,28.1-21.2,1.3-2.1,3.8-7.5,3.8-11.1s-.6-3.1-2.7-3.1h-.4c-4,.2-6.7,7.1-8.6,10.3-4.2,8.2-13.2,13.4-22,16.3-1.7.6-3.6.8-5.2.8-4.4,0-8.4-1.7-10.7-5.9-1.9-3.4-4.2-9.6-4.2-14s0-1.5.2-2.1c.6-2.5,3.1-5,4.6-7.1,3.1-4.4,5.9-9.2,8.6-13.8,6.1-10.1,11.9-20.7,16.8-31.8h16.1c5,0,10.1.2,15.1.4,1.3,0,2.7.4,4,.4s1.9-.2,2.7-.8c1.7-1.3,2.3-2.1,2.3-3.1,0-3.1-6.7-5.2-9.4-5.4h0ZM548.9,28.6c2.9-5.4,6.3-10.7,11.3-14.5,1.5-1,3.4-2.1,5.2-2.3h.6c.4,0,.8,0,1.3.2,2.7,1,2.7,4.2,2.7,6.5,0,5.9-1.5,11.5-3.6,17-8.6,23.3-20.7,44.2-32.3,66,0-1.9-.2-3.8-.2-5.7,0-23,5.4-50.1,14.9-67.2h0ZM435.1,38.6c3.1-6.3,7.8-15.5,15.1-17.8,1,3.6,1.7,7.3,1.7,11.1,0,17.8-11.3,37.3-20.7,50.5-3.6,5-7.8,11.7-12.8,15.5,2.5-20.1,7.8-41.1,16.8-59.3h0ZM317.6,38.6c3.1-6.3,7.8-15.5,15.1-17.8,1,3.6,1.7,7.3,1.7,11.1,0,17.8-11.3,37.3-20.7,50.5-3.6,5-7.8,11.7-12.8,15.5,2.5-20.1,7.8-41.1,16.8-59.3ZM321.2,142.5c-1.7,0-3.4-.2-4.8-.6-2.3-.6-6.1-2.7-6.1-5.4s4-3.6,6.1-3.6h.2c6.1,0,13.2,2.1,18.9,4.2-3.6,3.4-9,5.4-14.2,5.4h0ZM345.3,123.5c-.6,1.7-1.3,4.8-3.1,5.7-.4.2-.6.2-1.3.2-2.5,0-6.3-1.7-8.2-2.1-5.2-1.3-10.5-2.9-15.9-2.9s-3.4,0-5,.4c4.6-7.3,12.2-13.8,20.1-17.2,2.1-.8,4.4-1.7,6.7-1.7h.2c1.5,0,2.7.2,4,1,2.9,1.9,4,5,4,8.4s-.6,5.9-1.5,8.2h0ZM438.7,142.5c-1.7,0-3.4-.2-4.8-.6-2.3-.6-6.1-2.7-6.1-5.4s4-3.6,6.1-3.6h.2c6.1,0,13.2,2.1,18.9,4.2-3.6,3.4-9,5.4-14.2,5.4h0ZM462.8,123.5c-.6,1.7-1.3,4.8-3.1,5.7-.4.2-.6.2-1.3.2-2.5,0-6.3-1.7-8.2-2.1-5.2-1.3-10.5-2.9-15.9-2.9s-3.4,0-5,.4c4.6-7.3,12.2-13.8,20.1-17.2,2.1-.8,4.4-1.7,6.7-1.7h.2c1.5,0,2.7.2,4,1,2.9,1.9,4,5,4,8.4s-.6,5.9-1.5,8.2h0ZM648,102.3c-.2-1.3-.2-2.3-.2-3.6,0-5.4,1.5-11.9,2.3-17,.8-5.2,1.9-10.5,3.1-15.7,5-.2,10.1-.6,15.3-.6-5.9,13-13,25.6-20.5,36.9ZM680.7,25.6c0,5-1.7,10.3-2.9,15.1-1.5,5.2-3.4,10.7-5.4,15.9-.6,0-1.5.4-2.1.4-4.8.6-10.1.6-15.1.8,2.1-7.5,4.6-14.9,7.8-22,2.3-5.2,5.4-10.7,9.8-14.5,1.3-1,3.1-2.7,5-2.7h.6c1.9.6,2.3,4,2.3,5.7v1.3Z"/>
</svg>