<?xml version="1.0" encoding="UTF-8"?>
<svg id="svg" xmlns="http://www.w3.org/2000/svg" version="1.1" viewBox="0 0 400 400">
  <!-- Generator: Adobe Illustrator 29.1.0, SVG Export Plug-In . SVG Version: 2.1.0 Build 142)  -->
  <defs>
    <style>
      .st0 {
        fill: #888;
        fill-rule: evenodd;
      }
    </style>
  </defs>
  <g id="svgg">
    <path id="path0" class="st0" d="M159.8,1.1c-14.1,4.5-20.2,12.2-27.4,34.2l-3.8,11.5-39.5.2-39.5.2-5.5,2.7c-3.4,1.6-7.2,4.4-9.8,7-2.7,2.7-5.4,6.5-7,9.8l-2.7,5.5-.2,19.2c-.3,21.5-.1,22.2,5.8,24.7,4.8,2,337.2,1.5,340.5-.5,5-3.1,5.3-4.5,5-25l-.3-18.4-2.7-5.5c-3.5-7.2-9.7-13.4-16.9-16.9l-5.5-2.7-39.5-.2-39.5-.2-3.8-11.5c-6.6-20.2-11-26.5-22.2-32l-5.9-2.9-38.3-.2c-29.5-.1-39,0-41.4.8M234.8,25.1c1.3.7,3,2,3.7,2.8,1.2,1.3,6.8,16.5,6.8,18.3s-20.4.6-45.3.6-45.3-.3-45.3-.6c0-1.8,5.6-17,6.8-18.3,3.8-4.2,5.4-4.4,40.1-4.2,27,.1,31.2.3,33.2,1.4M50.4,145.9c.2,2,4.5,52.9,9.4,113.1,4.9,60.2,9.3,111.2,9.8,113.5,2.4,12.1,11.8,22.4,23.6,26.1,7.6,2.4,206.9,2.2,214-.2,12.4-4.2,21.5-14.9,23.6-27.7.3-1.7,4.5-52.2,9.4-112.1,4.9-59.9,9.1-110.7,9.4-112.7l.4-3.7H49.9l.4,3.7M136,168.2c5.3,3.6,5-2.4,5,91.2s0,84.9-1.4,87.3c-3,5.6-10.9,7.4-16.3,3.8-5.3-3.6-5,2.4-5-91.2s-.3-87.6,5-91.2c1.8-1.2,3.8-1.8,6.3-1.8s4.5.6,6.3,1.8M206.3,168.2c5.3,3.6,5-2.4,5,91.2s0,84.9-1.4,87.3c-3,5.6-10.9,7.4-16.3,3.8-5.3-3.6-5,2.4-5-91.2s-.3-87.6,5-91.2c1.8-1.2,3.8-1.8,6.3-1.8s4.5.6,6.3,1.8M276.3,167.9c5.7,3.5,5.3-3.1,5.3,91.4s0,84.9-1.4,87.3c-4.1,7.6-16.2,7.4-20.1-.3-2-3.9-1.7-170.8.2-174.4,1.9-3.5,5.6-5.6,9.9-5.6s4.5.6,6,1.5"/>
  </g>
</svg>