<?xml version="1.0" encoding="UTF-8"?>
<svg id="_圖層_1" data-name="圖層_1" xmlns="http://www.w3.org/2000/svg" version="1.1" viewBox="0 0 100 100">
  <!-- Generator: Adobe Illustrator 29.1.0, SVG Export Plug-In . SVG Version: 2.1.0 Build 142)  -->
  <defs>
    <style>
      .st0 {
        fill: #888888;
      }
    </style>
  </defs>
  <path class="st0" d="M89,46.1c0-1.5-.7-2.5-2-2.9-.9-.3-1.9-.7-2.9-1h-.1c-.8-.3-1.6-.7-2.5-.9-.6-.2-1-.6-1.2-1.2-.3-.9-.7-1.8-1.1-2.7v-.2c-.4-.7-.6-1.3-.8-1.9-.2-.5-.2-1,0-1.5.4-.8.8-1.7,1.2-2.5.6-1.2,1.1-2.3,1.6-3.5.4-.9.2-2.2-.5-2.9-.9-.9-1.8-1.9-2.7-2.8-.8-.8-1.6-1.7-2.4-2.5-1-1-2.1-1.2-3.4-.6-1.9.9-3.8,1.8-5.7,2.7-.5.2-1,.2-1.5,0-.7-.2-1.3-.5-2-.8h-.2c-.9-.4-1.8-.8-2.7-1.1-.6-.2-1-.7-1.2-1.2-.3-.8-.6-1.6-.8-2.4-.4-1.1-.8-2.2-1.2-3.3-.4-1.3-1.3-1.9-2.6-1.9-2.6,0-4.9,0-7.3,0h0c-1.3,0-2.2.6-2.7,1.9-.5,1.6-1.3,3.6-2.1,5.7-.2.5-.6.9-1.1,1.1-1.6.7-3.2,1.3-5,2-.5.2-1.1.2-1.5,0-2-.9-4-1.9-5.7-2.7-.4-.2-.9-.4-1.5-.4s-1.4.3-2,.9c-1.6,1.7-3.3,3.4-5,5-1,1-1.2,2.1-.6,3.3.9,1.9,1.8,3.8,2.7,5.7.2.5.2,1.1,0,1.6-.7,1.7-1.5,3.3-2.3,5-.2.5-.6.8-1.1,1-2,.7-4.1,1.5-6.2,2.1-1.4.4-2.1,1.4-2,2.8,0,2.2,0,4.5,0,7.1,0,1.4.6,2.3,2,2.7,1.2.4,2.4.8,3.6,1.2h.3c.7.4,1.5.6,2.2.9.6.2,1,.6,1.2,1.2.6,1.7,1.4,3.3,2.2,4.9.3.6.3,1.2,0,1.8-.5,1-1,2-1.4,3-.4.9-.8,1.7-1.2,2.5-.6,1.2-.4,2.3.5,3.2,1.7,1.7,3.4,3.4,5.1,5.1,1,1,2,1.2,3.3.6,1.9-.9,3.8-1.9,5.7-2.7.3-.1.5-.2.8-.2s.5,0,.8.2c1.7.7,3.4,1.5,5,2.2.5.2.8.6,1,1.1.6,1.6,1.3,3.6,2,5.8.5,1.6,1.5,2.3,3.1,2.3h.2c.9,0,1.9,0,3,0s2.5,0,3.5,0h.1c1.4,0,2.4-.7,2.8-2.1.4-1.3.9-2.6,1.3-3.9.2-.7.5-1.3.7-2,.2-.6.6-1,1.2-1.2,1.7-.7,3.3-1.4,4.9-2.1.5-.3,1.2-.3,1.7,0,1.2.6,2.4,1.1,3.6,1.7l.6.3c.4.2.7.3,1,.5,0,0,.2,0,.2.1.4.2,1,.5,1.6.5.6,0,1.2-.3,1.6-.7.8-.8,1.5-1.6,2.3-2.4l.9-.9c.8-.9,1.6-1.6,2.3-2.3.7-.8.8-2.1.4-3-.5-1.1-1-2.3-1.6-3.4v-.2c-.5-.8-.8-1.5-1.2-2.3-.2-.5-.2-1,0-1.5.6-1.7,1.2-3.3,1.9-5,.2-.5.6-.9,1.1-1.1,1.6-.7,3.4-1.3,5.4-2,.6-.2,2.2-.8,2.1-3,0-2,0-4.1,0-6.8ZM65.5,49.6c0,8.2-6.7,14.9-15,14.8-8.3,0-14.9-6.7-14.8-15.1,0-8.2,6.7-14.7,15.1-14.7,8.1,0,14.7,6.8,14.7,15Z"/>
</svg>