<?xml version="1.0" encoding="UTF-8"?><svg id="Layer_1" xmlns="http://www.w3.org/2000/svg" viewBox="0 0 721.3667 159.8198"><defs><style>.cls-1{fill:#fff;stroke:#fff;stroke-miterlimit:10;stroke-width:6px;}</style></defs><path class="cls-1" d="M37.7749,67.1587c-7.1226-4.6084-18.4351-11.5215-18.4351-21.5771,0-6.0752,3.771-11.522,7.7515-15.7114,7.332-7.5415,19.4819-14.6641,31.0039-14.6641,3.1426,0,6.2847.6284,9.2178,1.8853,3.1421,1.2568,5.4463,4.1895,6.4941,7.332,1.0474,2.9326,1.0474,7.5415,4.6084,7.5415.4189,0,1.0474-.2095,1.6763-.4189,2.5137-.6284,3.3516-2.7231,3.3516-5.0278,0-3.7705-2.0947-8.3794-3.5615-10.4741-4.6084-6.7036-12.3594-9.4272-20.5298-9.4272-1.0474,0-2.3042,0-3.3516.2095-8.5889,1.0474-16.7593,3.1426-24.3008,7.751-5.2368,3.1426-9.8457,6.7036-13.6167,11.522-2.3042,2.7236-3.98,5.8657-5.4468,9.2178-1.4663,3.3516-2.0947,6.7036-2.0947,9.8457,0,8.5889,4.8184,16.1299,12.1504,22.2061,14.0356,11.9404,31.4233,18.8535,46.0874,29.9561,6.9131,5.2373,16.7588,13.6172,16.7588,23.2539,0,.8379,0,1.4658-.2095,2.3037-1.2568,7.542-6.7036,13.6172-12.9883,17.5977-7.9604,5.2363-17.1777,7.332-26.605,7.332-7.1226,0-14.6641-1.2568-21.3677-3.1426-3.7705-1.0479-7.332-2.5137-10.4741-4.8184-2.0952-1.6758-3.5615-4.3994-6.2847-4.3994-.6284,0-1.2573.21-1.8857.4189-2.0947.8379-2.7231,2.0947-2.7231,3.3525,0,3.9795,7.751,9.4268,10.0557,10.6836,9.2173,4.6084,21.3677,6.9131,32.2607,6.9131,2.7236,0,5.4468-.21,7.9609-.4189,7.751-.8379,14.8735-3.5615,21.7866-7.123,4.3989-2.3037,8.5889-5.4463,11.731-9.2168,5.0278-5.8662,7.3325-12.1504,7.3325-18.4355,0-7.541-3.3521-15.083-9.0083-21.5771-12.5693-14.6641-31.4229-22.625-47.3442-32.8896Z"/><path class="cls-1" d="M248.9033,97.0601c.6284,0,1.2568,0,2.0952-.209,2.7231-.8379,5.0273-6.2852,5.0273-10.4746,0-2.9336-1.0474-5.4473-3.7705-5.4473-.4189,0-.8379,0-1.4663.21-2.9331.8379-5.2373,6.2842-5.2373,10.4746,0,2.7227,1.0474,5.2373,3.3516,5.4463Z"/><path class="cls-1" d="M597.4927,97.0601c.6284,0,1.2568,0,2.0952-.209,2.7231-.8379,5.0273-6.2852,5.0273-10.4746,0-2.9336-1.0474-5.4473-3.7705-5.4473-.4189,0-.8379,0-1.4668.21-2.9326.8379-5.2368,6.2842-5.2368,10.4746,0,2.7227,1.0474,5.2373,3.3516,5.4463Z"/><path class="cls-1" d="M708.9395,56.8384c-6.2842-.6284-13.1973-1.0474-20.1108-1.0474-2.3042,0-4.3989.2095-6.7036.2095,1.8857-5.2373,3.5615-10.4741,4.8184-15.7114,1.0474-3.771,2.0947-9.6367,2.0947-15.2925,0-7.9609-2.0947-15.0835-9.8457-15.293h-.8379c-1.0474,0-1.8853.2095-2.9331.4189-10.8931,2.3047-17.8062,14.874-21.7866,24.3008-3.3516,7.5415-5.8657,15.502-7.9604,23.6719h-1.8853c-9.4272,0-20.1108.8384-29.3286,2.5142-2.3042.4189-3.7705,2.3042-3.7705,4.3989,0,1.2573.6284,2.5142,1.6758,3.3521,1.0474.8384,2.5137,1.2563,3.9805,1.2563,1.2568,0,2.7231-.209,3.7705-.418,5.4468-.8384,10.8936-1.0479,16.3403-1.6763,2.5137-.4189,4.8179-.6284,7.332-.8379-1.8857,8.5884-3.1426,17.5962-3.9805,26.186-.6284,5.6562-1.2568,11.3125-1.2568,16.9688,0,1.1731.0436,2.3433.1047,3.4999-2.6324,1.5497-4.6774,5.0532-6.5983,6.9737-6.2847,6.2852-12.9883,12.3604-20.9487,16.3408-2.0947,1.0469-4.8179,2.7227-7.5415,2.7227-.6284,0-1.4663-.209-2.0947-.4189-2.9331-1.2568-3.9805-4.8184-4.3994-7.751-.2095-1.8848-.4189-3.7705-.4189-5.6562,0-4.3994.6284-9.0078,1.4663-13.6162,0-.4189.2095-.8379.2095-1.2568,0-2.5146-1.4663-4.8184-3.98-4.8184h-1.0474c-3.3774.8442-4.3886,4.6182-4.8174,8.2119-3.3867,2.5764-6.0425,8.3402-7.9628,11.0605-5.8657,8.1699-17.8062,18.2256-28.4902,18.2256-5.2373,0-10.2651-2.5137-14.0356-9.0078-1.8853-3.3516-4.1899-9.0078-4.1899-13.4072,0-.8379,0-1.4668.2095-2.0947,3.771-6.9131,8.1704-14.0361,11.7314-20.1113,11.522-20.5293,23.0439-41.8975,30.376-64.3125,1.2568-4.1899,2.7231-10.0557,2.7231-15.502,0-8.3799-2.7231-15.9214-11.9409-15.9214h-.2095c-1.0474,0-2.0947,0-3.3516.2095-11.522,2.0952-18.6445,13.8262-23.4629,23.4629-10.4741,21.1582-13.8262,46.2969-14.8735,69.7598-.2095,3.3516-.2095,6.9131-.2095,10.2646,0,2.6118.0502,5.2036.1511,7.6986-1.2147,1.0093-2.255,2.365-3.2942,3.4039-3.3516,3.5615-7.332,6.2852-11.7314,8.5889-8.3794,4.1904-16.9683,5.0283-25.5576,5.0283-4.8179,0-9.8457-.21-14.8735-.21,1.4663-5.2373,3.5615-10.0557,3.5615-15.7109,0-11.1035-7.9604-18.4355-17.5972-18.4355-2.0947,0-4.1895.4189-6.4941,1.0479-13.1978,4.1895-27.0239,17.1777-32.4707,29.7471-.6284-1.8857-.6284-3.5615-.6284-5.2373,0-12.1504,12.1504-21.1582,19.2729-30.585,11.103-14.874,20.3203-31.0044,23.8818-49.4395.8379-4.1895,1.4663-8.5889,1.4663-13.1978,0-3.3516-.2095-6.9131-1.2568-10.0552-1.2573-4.6089-4.8184-7.1226-9.2178-7.1226-2.0947,0-3.98.6284-6.0752,1.6758-7.751,4.3989-13.1978,12.9883-16.9683,20.9487-11.0189,22.9408-17.8191,52.5726-19.4868,79.5072-1.2381,1.0136-2.2931,2.3955-3.3477,3.4498-3.3521,3.5615-7.332,6.2852-11.7314,8.5889-8.3794,4.1904-16.9683,5.0283-25.5576,5.0283-4.8179,0-9.8457-.21-14.8735-.21,1.4663-5.2373,3.5615-10.0557,3.5615-15.7109,0-11.1035-7.9604-18.4355-17.5972-18.4355-2.0947,0-4.1899.4189-6.4941,1.0479-13.1978,4.1895-27.0239,17.1777-32.4707,29.7471-.6284-1.8857-.6284-3.5615-.6284-5.2373,0-12.1504,12.1504-21.1582,19.2729-30.585,11.103-14.874,20.3203-31.0044,23.8818-49.4395.8379-4.1895,1.4663-8.5889,1.4663-13.1978,0-3.3516-.2095-6.9131-1.2568-10.0552-1.2568-4.6089-4.8184-7.1226-9.2178-7.1226-2.0947,0-3.98.6284-6.0752,1.6758-7.751,4.3989-13.1978,12.9883-16.9683,20.9487-10.8846,22.6614-17.6467,51.8487-19.4178,78.519-2.6133,1.5615-4.647,5.0408-6.5583,6.9517-6.2847,6.2852-12.9883,12.3604-20.9487,16.3408-2.0947,1.0469-4.8179,2.7227-7.5415,2.7227-.6284,0-1.4663-.209-2.0947-.4189-2.9331-1.2568-3.9805-4.8184-4.3994-7.751-.2095-1.8848-.4189-3.7705-.4189-5.6562,0-4.3994.6284-9.0078,1.4663-13.6162,0-.4189.2095-.8379.2095-1.2568,0-2.5146-1.4663-4.8184-3.98-4.8184h-1.0474c-3.4691.8672-4.4444,4.8258-4.8536,8.5046-1.8252,1.1855-3.5731,2.8542-4.5736,3.8547-7.9604,8.1699-15.502,14.2451-25.3481,19.6924-2.0947,1.2568-5.6562,3.1416-8.5889,3.1416-1.2568,0-2.3042-.209-3.1421-1.0469-1.8857-1.6758-2.7236-4.6094-2.7236-7.9609,0-5.6562,2.0947-12.5693,3.5615-15.9209.8379-1.8857,2.3042-4.3994,2.3042-6.7031,0-1.2578-.6284-2.5146-2.0947-3.3525-.8379-.4189-1.4668-.6279-2.0952-.6279-2.9326,0-5.4463,3.1416-7.751,4.6084-4.1895,2.5137-9.0078,3.9805-13.8262,3.9805-1.2568,0-2.7231,0-3.98-.21v-1.0469c4.6084-2.3047,8.1699-8.5889,8.1699-14.0361,0-.6279,0-1.2568-.2095-1.8848-.8379-4.3994-4.1899-6.7041-7.9604-6.7041-2.0952,0-3.9805.6289-5.8657,1.6758-5.0278,3.1426-7.5415,8.7988-7.5415,14.2451,0,2.6554.5637,5.265,1.6602,7.6206-4.7952,2.1053-9.4085,5.2665-14.0201,7.6724-18.6445,10.0557-33.3086,19.2725-55.0952,20.7393-1.4668.21-3.1426-.4189-4.6089-.6289-4.9734-.3815-16.3647-8.3325-17.1226-17.332-.8543-10.1451,8.4587-15.8288,12.5693-19.6914,11.4388-10.7484,16.9131-13.5615,20.6836-13.5615,1.8857,0,3.771.4189,5.2373,1.6758,2.0947,1.6758,2.5142,4.3994,4.6089,5.8662.8379.4189,1.6758.8379,2.5137.8379,1.4663,0,2.9331-.8379,3.771-2.3047.4189-.6279.6284-1.4658.6284-2.0947,0-1.8857-1.0474-3.7705-1.8853-5.2373-2.9331-5.0273-8.7988-7.542-14.6646-7.542h-.2095c-.8379,0-1.6758-.209-2.5137,0-12.9883,1.8857-34.7197,21.7314-38.2808,34.5107-.6284,2.3037-1.1697,3.5392-1.0021,5.8368.9603,13.1645,12.0495,22.5977,17.4962,25.7403,3.561,2.0947,7.751,2.7236,12.1504,2.7236s9.0078-.8379,12.9878-1.8857c17.1782-4.1895,28.0718-8.7988,43.3643-17.3877,6.0752-3.3516,12.5693-6.2842,18.2256-10.0557.4527-.2828.8706-.6147,1.2457-.9811.0748.0465.1448.0977.2206.1432,2.9326,1.6768,6.0752,2.5146,9.2173,2.5146,4.3994,0,8.7983-1.2578,12.9883-2.7236-.8379,3.7705-1.2568,7.751-1.2568,11.5215,0,2.7236,0,5.4473.8379,8.1699,2.0947,7.332,6.7036,10.0557,12.1504,10.4746,10.2646,0,27.0239-10.4746,35.4033-18.8535.8708-.9954,2.2064-2.2719,3.6497-3.706.5807,9.7291,4.1768,20.0458,14.9949,20.0458h.6284c13.407-.4189,25.9761-11.9401,34.7744-21.1577,0,6.494.4189,12.778,1.0474,18.644.6284,2.0947,2.3042,3.1416,3.9805,3.1416,1.8853,0,3.98-1.0469,5.0273-2.7227,1.0479-1.6758,1.6763-3.7705,2.7236-5.4473,3.3516,7.542,10.4741,10.6846,18.0156,10.6846,5.8657,0,11.9409-1.8857,16.5498-4.3994,3.3516-1.8857,6.9131-6.4941,10.4746-7.332,5.4463.4189,11.312.8379,16.5493.8379,1.2568,0,2.3042-.21,3.5615-.21,10.8931-.4189,21.5771-1.8848,31.2134-6.9131,2.9288-1.4643,5.8051-3.2422,8.3947-5.3333.0387,6.1542.4351,12.1163,1.0325,17.6937.6284,2.0947,2.3042,3.1416,3.9805,3.1416,1.8853,0,3.98-1.0469,5.0273-2.7227,1.0479-1.6758,1.6763-3.7705,2.7236-5.4473,3.3516,7.542,10.4741,10.6846,18.0161,10.6846,5.8652,0,11.9404-1.8857,16.5493-4.3994,3.3516-1.8857,6.9131-6.4941,10.4746-7.332,5.4463.4189,11.312.8379,16.5493.8379,1.2568,0,2.3042-.21,3.5615-.21,10.8931-.4189,21.5771-1.8848,31.2134-6.9131,3.5037-1.7517,6.9221-3.962,9.8745-6.6107.2354,1.3821.5034,2.6262.8101,3.678,4.3994,11.5215,11.9409,22.2061,24.7197,22.2061,1.8853,0,3.9805-.21,6.2847-.8379,12.7963-3.1028,22.3585-11.2333,30.0238-21.3949.9806,9.0178,4.8077,17.8334,14.8077,17.8334h.6284c13.4072-.4189,25.9766-11.9404,34.7749-21.1582.3865-.4417,1.0817-1.1794,1.8914-2.0881,2.2338,12.0281,7.2275,23.4193,21.5705,24.2942h1.0479c2.3042,0,5.0273-.4199,7.332-1.0479,11.731-3.3516,22.2056-10.6836,28.0713-21.1582,1.2568-2.0947,3.7705-7.542,3.7705-11.1025,0-1.8857-.6284-3.1426-2.7231-3.1426h-.4189c-3.9805.209-6.7036,7.1221-8.5889,10.2646-4.1899,8.1699-13.1978,13.4072-21.9966,16.3398-1.6758.6289-3.561.8379-5.2368.8379-4.3994,0-8.3799-1.6758-10.6841-5.8652-1.8853-3.3516-4.1899-9.6367-4.1899-14.0361,0-.8379,0-1.4658.2095-2.0947.6284-2.5137,3.1426-5.0273,4.6089-7.1221,3.1426-4.3994,5.8657-9.2178,8.5889-13.8262,6.0752-10.0557,11.9409-20.7393,16.7593-31.8423h16.1304c5.0278,0,10.0557.2095,15.0835.4189,1.2568,0,2.7231.4189,3.98.4189,1.0474,0,1.8853-.2095,2.7236-.8379,1.6758-1.2573,2.3042-2.0952,2.3042-3.1426,0-3.1421-6.7036-5.2373-9.4272-5.4468ZM548.8906,28.5576c2.9326-5.4468,6.2842-10.6841,11.312-14.4546,1.4663-1.0474,3.3521-2.0947,5.2373-2.3042h.6284c.4189,0,.8379,0,1.2568.2095,2.7236,1.0474,2.7236,4.1895,2.7236,6.4941,0,5.8652-1.4668,11.5215-3.5615,16.9683-8.5889,23.2534-20.7393,44.2026-32.2612,65.9888,0-1.8857-.2095-3.7705-.2095-5.6562,0-23.0439,5.4468-50.0674,14.874-67.2456ZM435.1377,38.6133c3.1426-6.2847,7.751-15.5024,15.083-17.8066,1.0479,3.561,1.6763,7.332,1.6763,11.103,0,17.8062-11.3125,37.2891-20.7397,50.4863-3.561,5.0273-7.751,11.7314-12.7783,15.502,2.5137-20.1113,7.751-41.0596,16.7588-59.2847ZM317.6147,38.6133c3.1426-6.2847,7.751-15.5024,15.083-17.8066,1.0474,3.561,1.6763,7.332,1.6763,11.103,0,17.8062-11.3125,37.2891-20.7393,50.4863-3.5615,5.0273-7.7515,11.7314-12.7788,15.502,2.5137-20.1113,7.751-41.0596,16.7588-59.2847ZM321.1763,142.519c-1.6763,0-3.3521-.209-4.8184-.6289-2.3042-.6279-6.0752-2.7227-6.0752-5.4463,0-3.1426,3.9805-3.5615,6.0752-3.5615h.2095c6.0752,0,13.1978,2.0947,18.854,4.1904-3.5615,3.3516-9.0083,5.4463-14.2451,5.4463ZM345.2671,123.4556c-.6284,1.6758-1.2568,4.8184-3.1421,5.6562-.4189.21-.6284.21-1.2568.21-2.5142,0-6.2847-1.6768-8.1704-2.0957-5.2368-1.2568-10.4741-2.9326-15.9209-2.9326-1.6758,0-3.3521,0-5.0278.4189,4.6089-7.332,12.1504-13.8262,20.1108-17.1777,2.0952-.8379,4.3994-1.6758,6.7036-1.6758h.2095c1.4663,0,2.7236.209,3.9805,1.0469,2.9326,1.8857,3.98,5.0283,3.98,8.3799,0,2.7236-.6284,5.8652-1.4663,8.1699ZM438.6992,142.519c-1.6763,0-3.3521-.209-4.8184-.6289-2.3042-.6279-6.0752-2.7227-6.0752-5.4463,0-3.1426,3.9805-3.5615,6.0752-3.5615h.2095c6.0752,0,13.1978,2.0947,18.854,4.1904-3.5615,3.3516-9.0083,5.4463-14.2451,5.4463ZM462.79,123.4556c-.6284,1.6758-1.2568,4.8184-3.1421,5.6562-.4189.21-.6284.21-1.2568.21-2.5142,0-6.2847-1.6768-8.1704-2.0957-5.2368-1.2568-10.4741-2.9326-15.9209-2.9326-1.6758,0-3.3521,0-5.0278.4189,4.6089-7.332,12.1504-13.8262,20.1108-17.1777,2.0952-.8379,4.3994-1.6758,6.7036-1.6758h.2095c1.4663,0,2.7236.209,3.9805,1.0469,2.9326,1.8857,3.98,5.0283,3.98,8.3799,0,2.7236-.6284,5.8652-1.4663,8.1699ZM647.9785,102.2974c-.2095-1.2568-.2095-2.3047-.2095-3.5615,0-5.4463,1.4668-11.9404,2.3047-16.9688.8379-5.2363,1.8853-10.4746,3.1421-15.7109,5.0278-.2095,10.0557-.6284,15.2925-.6284-5.8652,12.9878-12.9878,25.5571-20.5298,36.8696ZM680.6587,25.625c0,5.0273-1.6758,10.2646-2.9326,15.083-1.4663,5.2373-3.3521,10.6836-5.4468,15.9209-.6284,0-1.4663.4189-2.0947.4189-4.8184.6284-10.0557.6284-15.0835.8379,2.0952-7.5415,4.6089-14.8735,7.7515-21.9961,2.3042-5.2373,5.4463-10.6836,9.8457-14.4546,1.2568-1.0474,3.1426-2.7231,5.0278-2.7231h.6284c1.8853.6284,2.3042,3.98,2.3042,5.6558v1.2573Z"/></svg>